P3
100 50
255
0 0 0 0 0 0 0 0 0 0 0 0 0 0 0 0 0
0 0 0 0 0 0 0 0 0 0 0 0 0 0 0 0 0
0 0 0 0 0 0 0 0 0 0 0 0 0 0 0 0 0
0 0 0 0 0 0 0 0 0 0 0 0 0 0 0 0 0
0 0 0 0 0 0 0 0 0 0 0 0 0 0 0 0 0
0 0 0 0 0 0 0 0 0 0 0 0 0 0 0 0 0
0 0 0 0 0 0 0 0 0 0 0 0 0 0 0 0 0
0 0 0 0 0 0 0 0 0 0 0 0 0 0 0 0 0
0 0 0 0 0 0 0 0 0 0 0 0 0 0 0 0 0
0 0 0 0 0 0 0 0 0 0 0 0 0 0 0 0 0
0 0 0 0 0 0 0 0 0 0 0 0 0 0 0 0 0
0 0 0 0 0 0 0 0 0 0 0 0 0 0 0 0 0
0 0 0 0 0 0 0 0 0 0 0 0 0 0 0 0 0
0 0 0 0 0 0 0 0 0 0 0 0 0 0 0 0 0
0 0 0 0 0 0 0 0 0 0 0 0 0 0 0 0 0
0 0 0 0 0 0 0 0 0 0 0 0 0 0 0 0 0
0 0 0 0 0 0 0 0 0 0 0 0 0 0 0 0 0
0 0 0 0 0 0 0 0 0 0 0
0 0 0 0 0 0 0 0 0 0 0 0 0 0 0 0 0
0 0 0 0 0 0 0 0 0 0 0 0 0 0 0 0 0
0 0 0 0 0 0 0 0 0 0 0 0 0 0 0 0 0
0 0 0 0 0 0 0 0 0 0 0 0 0 0 0 0 0
0 0 0 0 0 0 0 0 0 0 0 0 0 0 0 0 0
0 0 0 0 0 0 0 0 0 0 0 0 0 0 0 0 0
0 0 0 0 0 0 0 0 0 0 0 0 0 0 0 0 0
0 0 0 0 0 0 0 0 0 0 0 0 0 0 0 0 0
0 0 0 0 0 0 0 0 0 0 0 0 0 0 0 0 0
0 0 0 0 0 0 0 0 0 0 0 0 0 0 0 0 0
0 0 0 0 0 0 0 0 0 0 0 0 0 0 0 0 0
0 0 0 0 0 0 0 0 0 0 0 0 0 0 0 0 0
0 0 0 0 0 0 0 0 0 0 0 0 0 0 0 0 0
0 0 0 0 0 0 0 0 0 0 0 0 0 0 0 0 0
0 0 0 0 0 0 0 0 0 0 0 0 0 0 0 0 0
0 0 0 0 0 0 0 0 0 0 0 0 0 0 0 0 0
0 0 0 0 0 0 0 0 0 0 0 0 0 0 0 0 0
0 0 0 0 0 0 0 0 0 0 0
0 0 0 0 0 0 0 0 0 0 0 0 0 0 0 0 0
0 0 0 0 0 0 0 0 0 0 0 0 0 0 0 0 0
0 0 0 0 0 0 0 0 0 0 0 0 0 0 0 0 0
0 0 0 0 0 0 0 0 0 0 0 0 0 0 0 0 0
0 0 0 0 0 0 0 0 0 0 0 0 0 0 0 0 0
0 0 0 0 0 0 0 0 0 0 0 0 0 0 0 0 0
0 0 0 0 0 0 0 0 0 0 0 0 0 0 0 0 0
0 0 0 0 0 0 0 0 0 0 0 0 0 0 0 0 0
0 0 0 0 0 0 0 0 0 0 0 0 0 0 0 0 0
0 0 0 0 0 0 0 0 0 0 0 0 0 0 0 0 0
0 0 0 0 0 0 0 0 0 0 0 0 0 0 0 0 0
0 0 0 0 0 0 0 0 0 0 0 0 0 0 0 0 0
0 0 0 0 0 0 0 0 0 0 0 0 0 0 0 0 0
0 0 0 0 0 0 0 0 0 0 0 0 0 0 0 0 0
0 0 0 0 0 0 0 0 0 0 0 0 0 0 0 0 0
0 0 0 0 0 0 0 0 0 0 0 0 0 0 0 0 0
0 0 0 0 0 0 0 0 0 0 0 0 0 0 0 0 0
0 0 0 0 0 0 0 0 0 0 0
0 0 0 0 0 0 0 0 0 0 0 0 0 0 0 0 0
0 0 0 0 0 0 0 0 0 0 0 0 0 0 0 0 0
0 0 0 0 0 0 0 0 0 0 0 0 0 0 0 0 0
0 0 0 0 0 0 0 0 0 0 0 0 0 0 0 0 0
0 0 0 0 0 0 0 0 0 0 0 0 0 0 0 0 0
0 0 0 0 0 0 0 0 0 0 0 0 0 0 0 0 0
0 0 0 0 0 0 0 0 0 0 0 0 0 0 0 0 0
0 0 0 0 0 0 0 0 0 0 0 0 0 0 0 0 0
0 0 0 0 0 0 0 0 0 0 0 0 0 0 0 0 0
0 0 0 0 0 0 0 0 0 0 0 0 0 0 0 0 0
0 0 0 0 0 0 0 0 0 0 0 0 0 0 0 0 0
0 0 0 0 0 0 0 0 0 0 0 0 0 0 0 0 0
0 0 0 0 0 0 0 0 0 0 0 0 0 0 0 0 0
0 0 0 0 0 0 0 0 0 0 0 0 0 0 0 0 0
0 0 0 0 0 0 0 0 0 0 0 0 0 0 0 0 0
0 0 0 0 0 0 0 0 0 0 0 0 0 0 0 0 0
0 0 0 0 0 0 0 0 0 0 0 0 0 0 0 0 0
0 0 0 0 0 0 0 0 0 0 0
0 0 0 0 0 0 0 0 0 0 0 0 0 0 0 0 0
0 0 0 0 0 0 0 0 0 0 0 0 0 0 0 0 0
0 0 0 0 0 0 0 0 0 0 0 0 0 0 0 0 0
0 0 0 0 0 0 0 0 0 0 0 0 0 0 0 0 0
0 0 0 0 0 0 0 0 0 0 0 0 0 0 0 0 0
0 0 0 0 0 0 0 0 0 0 0 0 0 0 0 0 0
0 0 0 0 0 0 0 0 0 0 0 0 0 0 0 0 0
0 0 0 0 0 0 0 0 0 0 0 0 0 0 0 0 0
0 0 0 0 0 0 0 0 0 0 0 0 0 0 0 0 0
0 0 0 0 0 0 0 0 0 0 0 0 0 0 0 0 0
0 0 0 0 0 0 0 0 0 0 0 0 0 0 0 0 0
0 0 0 0 0 0 0 0 0 0 0 0 0 0 0 0 0
0 0 0 0 0 0 0 0 0 0 0 0 0 0 0 0 0
0 0 0 0 0 0 0 0 0 0 0 0 0 0 0 0 0
0 0 0 0 0 0 0 0 0 0 0 0 0 0 0 0 0
0 0 0 0 0 0 0 0 0 0 0 0 0 0 0 0 0
0 0 0 0 0 0 0 0 0 0 0 0 0 0 0 0 0
0 0 0 0 0 0 0 0 0 0 0
0 0 0 0 0 0 0 0 0 0 0 0 0 0 0 0 0
0 0 0 0 0 0 0 0 0 0 0 0 0 0 0 0 0
0 0 0 0 0 0 0 0 0 0 0 0 0 0 0 0 0
0 0 0 0 0 0 0 0 0 0 0 0 0 0 0 0 0
0 0 0 0 0 0 0 0 0 0 0 0 0 0 0 0 0
0 0 0 0 0 0 0 0 0 0 0 0 0 0 0 0 0
0 0 0 0 0 0 0 0 0 0 0 0 0 0 0 0 0
0 0 0 0 0 0 0 0 0 0 0 0 0 0 0 0 0
0 0 0 0 0 0 0 0 0 0 0 0 0 0 0 0 0
0 0 0 0 0 0 0 0 0 0 0 0 0 0 0 0 0
0 0 0 0 0 0 0 0 0 0 0 0 0 0 0 0 0
0 0 0 0 0 0 0 0 0 0 0 0 0 0 0 0 0
0 0 0 0 0 0 0 0 0 0 0 0 0 0 0 0 0
0 0 0 0 0 0 0 0 0 0 0 0 0 0 0 0 0
0 0 0 0 0 0 0 0 0 0 0 0 0 0 0 0 0
0 0 0 0 0 0 0 0 0 0 0 0 0 0 0 0 0
0 0 0 0 0 0 0 0 0 0 0 0 0 0 0 0 0
0 0 0 0 0 0 0 0 0 0 0
0 0 0 0 0 0 0 0 0 0 0 0 0 0 0 0 0
0 0 0 0 0 0 0 0 0 0 0 0 0 0 0 0 0
0 0 0 0 0 0 0 0 0 0 0 0 0 0 0 0 0
0 0 0 0 0 0 0 0 0 0 0 0 0 0 0 0 0
0 0 0 0 0 0 0 0 0 0 0 0 0 0 0 0 0
0 0 0 0 0 0 0 0 0 0 0 0 0 0 0 0 0
0 0 0 0 0 0 0 0 0 0 0 0 0 0 0 0 0
0 0 0 0 0 0 0 0 0 0 0 0 0 0 0 0 0
0 0 0 0 0 0 0 0 0 0 0 0 0 0 0 0 0
0 0 0 0 0 0 0 0 0 0 0 0 0 0 0 0 0
0 0 0 0 0 0 0 0 0 0 0 0 0 0 0 0 0
0 0 0 0 0 0 0 0 0 0 0 0 0 0 0 0 0
0 0 0 0 0 0 0 0 0 0 0 0 0 0 0 0 0
0 0 0 0 0 0 0 0 0 0 0 0 0 0 0 0 0
0 0 0 0 0 0 0 0 0 0 0 0 0 0 0 0 0
0 0 0 0 0 0 0 0 0 0 0 0 0 0 0 0 0
0 0 0 0 0 0 0 0 0 0 0 0 0 0 0 0 0
0 0 0 0 0 0 0 0 0 0 0
0 0 0 0 0 0 0 0 0 0 0 0 0 0 0 0 0
0 0 0 0 0 0 0 0 0 0 0 0 0 0 0 0 0
0 0 0 0 0 0 0 0 0 0 0 0 0 0 0 0 0
0 0 0 0 0 0 0 0 0 0 0 0 0 0 0 0 0
0 0 0 0 0 0 0 0 0 0 0 0 0 0 0 0 0
0 0 0 0 0 0 0 0 0 0 0 0 0 0 0 0 0
0 0 0 0 0 0 0 0 0 0 0 0 0 0 0 0 0
0 0 0 0 0 0 0 0 0 0 0 0 0 0 0 0 0
0 0 0 0 0 0 0 0 0 0 0 0 0 0 0 0 0
0 0 0 0 0 0 0 0 0 0 0 0 0 0 0 0 0
0 0 0 0 0 0 0 0 0 0 0 0 0 0 0 0 0
0 0 0 0 0 0 0 0 0 0 0 0 0 0 0 0 0
0 0 0 0 0 0 0 0 0 0 0 0 0 0 0 0 0
0 0 0 0 0 0 0 0 0 0 0 0 0 0 0 0 0
0 0 0 0 0 0 0 0 0 0 0 0 0 0 0 0 0
0 0 0 0 0 0 0 0 0 0 0 0 0 0 0 0 0
0 0 0 0 0 0 0 0 0 0 0 0 0 0 0 0 0
0 0 0 0 0 0 0 0 0 0 0
0 0 0 0 0 0 0 0 0 0 0 0 0 0 0 0 0
0 0 0 0 0 0 0 0 0 0 0 0 0 0 0 0 0
0 0 0 0 0 0 0 0 0 0 0 0 0 0 0 0 0
0 0 0 0 0 0 0 0 0 0 0 0 0 0 0 0 0
0 0 0 0 0 0 0 0 0 0 0 0 0 0 0 0 0
0 0 0 0 0 0 0 0 0 0 0 0 0 0 0 0 0
0 0 0 0 0 0 0 0 0 0 0 0 0 0 0 0 0
0 145 145 145 0 0 0 0 0 0 122 122 122 0 0 0 0
0 0 0 0 0 0 0 0 0 0 0 0 0 0 0 0 0
0 0 0 0 0 0 0 0 0 0 0 0 0 0 0 0 0
0 0 0 0 0 0 0 0 0 0 0 0 0 0 0 0 0
0 0 0 0 0 0 0 0 0 0 0 0 0 0 0 0 0
0 0 0 0 0 0 0 0 0 0 0 0 0 0 0 0 0
0 0 0 0 0 0 0 0 0 0 0 0 0 0 0 0 0
0 0 0 0 0 0 0 0 0 0 0 0 0 0 0 0 0
0 0 0 0 0 0 0 0 0 0 0 0 0 0 0 0 0
0 0 0 0 0 0 0 0 0 0 0 0 0 0 0 0 0
0 0 0 0 0 0 0 0 0 0 0
0 0 0 0 0 0 0 0 0 0 0 0 0 0 0 0 0
0 0 0 0 0 0 0 0 0 0 0 0 0 0 0 0 0
0 0 0 0 0 0 0 0 0 0 0 0 0 0 0 0 0
0 0 0 0 0 0 0 0 0 0 0 0 0 0 0 0 0
0 0 0 0 0 0 0 0 0 0 0 0 0 0 0 0 0
0 0 0 0 0 0 0 0 0 0 0 0 0 0 0 0 0
0 0 0 0 0 0 0 0 0 173 173 173 0 0 0 167 167
167 162 162 162 0 0 0 0 0 0 0 0 0 132 132 132 121
121 121 109 109 109 0 0 0 0 0 0 0 0 0 0 0 0
0 0 0 0 0 0 0 0 0 0 0 0 0 0 0 0 0
0 0 0 0 0 0 0 0 0 0 0 0 0 0 0 0 0
0 0 0 0 0 0 0 0 0 0 0 0 0 0 0 0 0
0 0 0 0 0 0 0 0 0 0 0 0 0 0 0 0 0
0 0 0 0 0 0 0 0 0 0 0 0 0 0 0 0 0
0 0 0 0 0 0 0 0 0 0 0 0 0 0 0 0 0
0 0 0 0 0 0 0 0 0 0 0 0 0 0 0 0 0
0 0 0 0 0 0 0 0 0 0 0 0 0 0 0 0 0
0 0 0 0 0 0 0 0 0 0 0
0 0 0 0 0 0 0 0 0 0 0 0 0 0 0 0 0
0 0 0 0 0 0 0 0 0 0 0 0 0 0 0 0 0
0 0 0 0 0 0 0 0 0 0 0 0 0 0 0 0 0
0 0 0 0 0 0 0 0 0 0 0 0 0 0 0 0 0
0 0 0 0 0 0 0 0 0 0 0 0 0 0 0 0 0
0 0 0 0 0 0 0 0 0 0 0 0 0 0 0 0 0
0 0 0 186 186 186 1 1 1 182 182 182 178 178 178 1 1
1 1 1 1 161 161 161 155 155 155 147 147 147 139 139 139 0
0 0 0 0 0 0 0 0 0 0 0 75 75 75 0 0 0
0 0 0 0 0 0 0 0 0 0 0 0 0 0 0 0 0
0 0 0 0 0 0 0 0 0 0 0 0 0 0 0 0 0
0 0 0 0 0 0 0 0 0 0 0 0 0 0 0 0 0
0 0 0 0 0 0 0 0 0 0 0 0 0 0 0 0 0
0 0 0 0 0 0 0 0 0 0 0 0 0 0 0 0 0
0 0 0 0 0 0 0 0 0 0 0 0 0 0 0 0 0
0 0 0 0 0 0 0 0 0 0 0 0 0 0 0 0 0
0 0 0 0 0 0 0 0 0 0 0 0 0 0 0 0 0
0 0 0 0 0 0 0 0 0 0 0
0 0 0 0 0 0 0 0 0 0 0 0 0 0 0 0 0
0 0 0 0 0 0 0 0 0 0 0 0 0 0 0 0 0
0 0 0 0 0 0 0 0 0 0 0 0 0 0 0 0 0
0 0 0 0 0 0 0 0 0 0 0 0 0 0 0 0 0
0 0 0 0 0 0 0 0 0 0 0 0 0 0 0 0 0
0 0 0 0 0 0 0 0 0 0 0 0 0 0 1 1 1
194 194 194 1 1 1 189 189 189 186 186 186 1 1 1 1 1
1 170 170 170 164 164 164 1 1 1 1 1 1 1 1 1 1
1 1 124 124 124 114 114 114 103 103 103 89 89 89 0 0 0
0 0 0 0 0 0 0 0 0 0 0 0 0 0 0 0 0
0 0 0 0 0 0 0 0 0 0 0 0 0 0 0 0 0
0 0 0 0 0 0 0 0 0 0 0 0 0 0 0 0 0
0 0 0 0 0 0 0 0 0 0 0 0 0 0 0 0 0
0 0 0 0 0 0 0 0 0 0 0 0 0 0 0 0 0
0 0 0 0 0 0 0 0 0 0 0 0 0 0 0 0 0
0 0 0 0 0 0 0 0 0 0 0 0 0 0 0 0 0
0 0 0 0 0 0 0 0 0 0 0 0 0 0 0 0 0
0 0 0 0 0 0 0 0 0 0 0
0 0 0 0 0 0 0 0 0 0 0 0 0 0 0 0 0
0 0 0 0 0 0 0 0 0 0 0 0 0 0 0 0 0
0 0 0 0 0 0 0 0 0 0 0 0 0 0 0 0 0
0 0 0 0 0 0 0 0 0 0 0 0 0 0 0 0 0
0 0 0 0 0 0 0 0 0 0 0 0 0 0 0 0 0
0 0 0 0 0 0 0 0 192 192 192 1 1 1 199 199 199
1 1 1 195 195 195 191 191 191 1 1 1 1 1 1 177 177
177 172 172 172 1 1 1 1 1 1 1 1 1 144 144 144 136
136 136 127 127 127 117 117 117 107 107 107 95 95 95 82 82 82
65 65 65 0 0 0 0 0 0 0 0 0 0 0 0 0 0
0 0 0 0 0 0 0 0 0 0 0 0 0 0 0 0 0
0 0 0 0 0 0 0 0 0 0 0 0 0 0 0 0 0
0 0 0 0 0 0 0 0 0 0 0 0 0 0 0 0 0
0 0 0 0 0 0 0 0 0 0 0 0 0 0 0 0 0
0 0 0 0 0 0 0 0 0 0 0 0 0 0 0 0 0
0 0 0 0 0 0 0 0 0 0 0 0 0 0 0 0 0
0 0 0 0 0 0 0 0 0 0 0 0 0 0 0 0 0
0 0 0 0 0 0 0 0 0 0 0
0 0 0 0 0 0 0 0 0 0 0 0 0 0 0 0 0
0 0 0 0 0 0 0 0 0 0 0 0 0 0 0 0 0
0 0 0 0 0 0 0 0 0 0 0 0 0 0 0 0 0
0 0 0 0 0 0 0 0 0 0 0 0 0 0 0 0 0
0 0 0 0 0 0 0 0 0 0 0 0 0 0 0 0 0
0 0 0 0 0 0 0 0 1 1 1 202 202 202 1 1 1
199 199 199 196 196 196 1 1 1 1 1 1 183 183 183 177 177
177 1 1 1 1 1 1 1 1 1 152 152 152 144 144 144 136
136 136 1 1 1 1 1 1 0 0 0 0 0 0 0 0 0
0 0 0 0 0 0 28 28 28 0 0 0 0 0 0 0 0
0 0 0 0 0 0 0 0 0 0 0 0 0 0 0 0 0
0 0 0 0 0 0 0 0 0 0 0 0 0 0 0 0 0
0 0 0 0 0 0 0 0 0 0 0 0 0 0 0 0 0
0 0 0 0 0 0 0 0 0 0 0 0 0 0 0 0 0
0 0 0 0 0 0 0 0 0 0 0 0 0 0 0 0 0
0 0 0 0 0 0 0 0 0 0 0 0 0 0 0 0 0
0 0 0 0 0 0 0 0 0 0 0 0 0 0 0 0 0
0 0 0 0 0 0 0 0 0 0 0
0 0 0 0 0 0 0 0 0 0 0 0 0 0 0 0 0
0 0 0 0 0 0 0 0 0 0 0 0 0 0 0 0 0
0 0 0 0 0 0 0 0 0 0 0 0 0 0 0 0 0
0 0 0 0 0 0 0 0 0 0 0 0 0 0 0 0 0
0 0 0 0 0 0 0 0 0 0 0 0 0 0 0 0 0
0 0 0 0 0 1 1 1 204 204 204 1 1 1 1 1 1
199 199 199 1 1 1 1 1 1 187 187 187 182 182 182 1 1
1 1 1 1 1 1 1 158 158 158 151 151 151 144 144 144 1
1 1 1 1 1 1 1 1 1 1 1 0 0 0 0 0 0
0 0 0 0 0 0 0 0 0 26 26 26 0 0 0 0 0
0 0 0 0 0 0 0 0 0 0 0 0 0 0 0 0 0
0 0 0 0 0 0 0 0 0 0 0 0 0 0 0 0 0
0 0 0 0 0 0 0 0 0 0 0 0 0 0 0 0 0
0 0 0 0 0 0 0 0 0 0 0 0 0 0 0 0 0
0 0 0 0 0 0 0 0 0 0 0 0 0 0 0 0 0
0 0 0 0 0 0 0 0 0 0 0 0 0 0 0 0 0
0 0 0 0 0 0 0 0 0 0 0 0 0 0 0 0 0
0 0 0 0 0 0 0 0 0 0 0
0 0 0 0 0 0 0 0 0 0 0 0 0 0 0 0 0
0 0 0 0 0 0 0 0 0 0 0 0 0 0 0 0 0
0 0 0 0 0 0 0 0 0 0 0 0 0 0 0 0 0
0 0 0 0 0 0 0 0 0 0 0 0 0 0 0 0 0
0 0 0 0 0 0 0 0 0 0 0 0 0 0 0 0 0
0 0 201 201 201 1 1 1 204 204 204 1 1 1 201 201 201
198 198 198 1 1 1 190 190 190 185 185 185 1 1 1 1 1
1 1 1 1 163 163 163 157 157 157 150 150 150 1 1 1 1
1 1 1 1 1 1 1 1 109 109 109 99 99 99 88 88 88
76 76 76 63 63 63 47 47 47 0 0 0 0 0 0 0 0
0 0 0 0 0 0 0 0 0 0 0 0 0 0 0 0 0
0 0 0 0 0 0 0 0 0 0 0 0 0 0 0 0 0
0 0 0 0 0 0 0 0 0 0 0 0 0 0 0 0 0
0 0 0 0 0 0 0 0 0 0 0 0 0 0 0 0 0
0 0 0 0 0 0 0 0 0 0 0 0 0 0 0 0 0
0 0 0 0 0 0 0 0 0 0 0 0 0 0 0 0 0
0 0 0 0 0 0 0 0 0 0 0 0 0 0 0 0 0
0 0 0 0 0 0 0 0 0 0 0
28 25 25 28 25 25 28 25 25 28 25 25 28 25 25 28 25
25 28 25 25 28 25 25 28 25 25 28 25 25 28 25 25 28
25 25 28 25 25 28 25 25 28 25 25 28 25 25 28 25 25
28 25 25 28 25 25 28 25 25 28 25 25 28 25 25 28 25
25 28 25 25 28 25 25 28 25 25 28 25 25 28 25 25 0
0 0 1 1 1 204 204 204 1 1 1 1 1 1 199 199 199
1 1 1 1 1 1 188 188 188 184 184 184 1 1 1 1 1
1 167 167 167 161 161 161 155 155 155 1 1 1 1 1 1 1
1 1 1 1 1 117 117 117 108 108 108 98 98 98 88 88 88
76 76 76 64 64 64 49 49 49 32 32 32 0 0 0 28 25
25 28 25 25 28 25 25 28 25 25 28 25 25 28 25 25 28
25 25 28 25 25 28 25 25 28 25 25 28 25 25 28 25 25
28 25 25 28 25 25 28 25 25 28 25 25 28 25 25 28 25
25 28 25 25 28 25 25 28 25 25 28 25 25 28 25 25 28
25 25 28 25 25 28 25 25 28 25 25 28 25 25 28 25 25
28 25 25 28 25 25 28 25 25 28 25 25 28 25 25 28 25
25 28 25 25 28 25 25 28 25 25 28 25 25 28 25 25 28
25 25 28 25 25 28 25 25 28 25 25
43 39 39 43 39 39 43 39 39 43 39 39 43 39 39 43 39
39 43 39 39 44 39 39 44 39 39 44 39 39 44 39 39 44
39 39 44 40 40 44 40 40 44 40 40 44 40 40 44 40 40
44 40 40 44 40 40 44 40 40 44 40 40 44 40 40 44 40
40 44 40 40 44 40 40 44 40 40 45 40 40 0 0 0 199
199 199 1 1 1 203 203 203 1 1 1 200 200 200 197 197 197
1 1 1 190 190 190 186 186 186 1 1 1 1 1 1 1 1
1 165 165 165 159 159 159 1 1 1 1 1 1 1 1 1 1
1 1 123 123 123 115 115 115 106 106 106 97 97 97 87 87 87
76 76 76 64 64 64 50 50 50 34 34 34 26 26 26 45 40
40 45 40 40 45 40 40 44 40 40 44 40 40 44 40 40 44
40 40 44 40 40 44 40 40 44 40 40 44 40 40 44 40 40
44 40 40 44 40 40 44 40 40 44 40 40 44 40 40 44 39
39 44 39 39 44 39 39 44 39 39 44 39 39 43 39 39 43
39 39 43 39 39 43 39 39 43 39 39 43 39 39 43 39 39
43 39 39 43 39 39 43 39 39 43 39 39 43 38 38 43 38
38 43 38 38 42 38 38 42 38 38 42 38 38 42 38 38 42
38 38 42 38 38 42 38 38 42 38 38
58 52 52 58 52 52 58 52 52 58 52 52 58 53 53 58 53
53 59 53 53 59 53 53 59 53 53 59 53 53 59 53 53 59
53 53 59 53 53 59 53 53 59 53 53 59 53 53 59 54 54
59 54 54 60 54 54 60 54 54 60 54 54 60 54 54 60 54
54 60 54 54 60 54 54 60 54 54 60 54 54 0 0 0 199
199 199 201 201 201 201 201 201 1 1 1 198 198 198 1 1 1
1 1 1 194 194 194 199 199 199 2 2 2 1 1 1 168 168
168 162 162 162 156 156 156 1 1 1 1 1 1 1 1 1 129
129 129 121 121 121 113 113 113 104 104 104 95 95 95 0 0 0
0 0 0 0 0 0 0 0 0 0 0 0 26 26 26 26 26
26 59 53 53 59 53 53 59 53 53 59 53 53 59 53 53 59
53 53 59 53 53 59 53 53 59 53 53 58 53 53 58 53 53
58 52 52 58 52 52 58 52 52 58 52 52 58 52 52 58 52
52 58 52 52 57 52 52 57 52 52 57 52 52 57 51 51 57
51 51 57 51 51 57 51 51 57 51 51 56 51 51 56 51 51
56 51 51 56 51 51 56 50 50 56 50 50 56 50 50 56 50
50 55 50 50 55 50 50 55 50 50 55 50 50 55 49 49 55
49 49 55 49 49 54 49 49 54 49 49
72 65 65 72 65 65 72 65 65 72 65 65 73 65 65 73 65
65 73 66 66 73 66 66 73 66 66 73 66 66 73 66 66 73
66 66 73 66 66 73 66 66 73 66 66 74 66 66 74 66 66
74 66 66 74 66 66 74 66 66 74 67 67 74 67 67 74 67
67 74 67 67 74 67 67 74 67 67 74 67 67 1 1 1 1
1 1 199 199 199 1 1 1 197 197 197 195 195 195 1 1 1
2 2 2 231 231 231 236 236 236 4 4 4 1 1 1 165 165
165 159 159 159 1 1 1 1 1 1 1 1 1 1 1 1 126
126 126 118 118 118 110 110 110 101 101 101 0 0 0 0 0 0
0 0 0 0 0 0 0 0 0 0 0 0 0 0 0 26 26
26 72 65 65 72 65 65 72 65 65 72 65 65 72 65 65 72
64 64 71 64 64 71 64 64 71 64 64 71 64 64 71 64 64
71 64 64 70 63 63 70 63 63 70 63 63 70 63 63 70 63
63 70 63 63 70 63 63 69 62 62 69 62 62 69 62 62 69
62 62 69 62 62 68 62 62 68 62 62 68 61 61 68 61 61
68 61 61 68 61 61 67 61 61 67 61 61 67 60 60 67 60
60 67 60 60 66 60 60 66 60 60 66 60 60 66 59 59 66
59 59 66 59 59 65 59 59 65 59 59
85 77 77 85 77 77 85 77 77 86 77 77 86 77 77 86 77
77 86 77 77 86 77 77 86 77 77 86 78 78 86 78 78 86
78 78 86 78 78 86 78 78 86 78 78 86 78 78 86 78 78
86 78 78 87 78 78 87 78 78 87 78 78 87 78 78 87 78
78 87 78 78 87 78 78 87 78 78 0 0 0 191 191 191 1
1 1 196 196 196 1 1 1 194 194 194 191 191 191 1 1 1
186 186 186 199 199 199 12 12 12 1 1 1 1 1 1 161 161
161 155 155 155 1 1 1 1 1 1 1 1 1 130 130 130 122
122 122 115 115 115 107 107 107 1 1 1 0 0 0 0 0 0
0 0 0 0 0 0 0 0 0 0 0 0 0 0 0 26 26
26 83 75 75 83 75 75 83 75 75 83 75 75 83 74 74 83
74 74 82 74 74 82 74 74 82 74 74 82 74 74 82 73 73
81 73 73 81 73 73 81 73 73 81 73 73 81 73 73 80 72
72 80 72 72 80 72 72 80 72 72 80 72 72 79 71 71 79
71 71 79 71 71 79 71 71 78 71 71 78 70 70 78 70 70
78 70 70 78 70 70 77 70 70 77 69 69 77 69 69 77 69
69 76 69 69 76 69 69 76 68 68 76 68 68 76 68 68 75
68 68 75 68 68 75 67 67 75 67 67
97 87 87 97 87 87 97 88 88 97 88 88 97 88 88 97 88
88 98 88 88 98 88 88 98 88 88 98 88 88 98 88 88 98
88 88 98 88 88 98 88 88 98 88 88 98 88 88 98 88 88
98 88 88 98 88 88 98 88 88 98 88 88 98 88 88 98 88
88 98 88 88 98 88 88 98 88 88 178 178 178 189 189 189 1
1 1 193 193 193 1 1 1 190 190 190 1 1 1 1 1 1
181 181 181 177 177 177 1 1 1 1 1 1 163 163 163 157 157
157 152 152 152 1 1 1 1 1 1 1 1 1 126 126 126 119
119 119 111 111 111 103 103 103 1 1 1 0 0 0 0 0 0
0 0 0 0 0 0 0 0 0 0 0 0 0 0 0 0 0
0 26 26 26 93 84 84 93 83 83 92 83 83 92 83 83 92
83 83 92 83 83 92 82 82 91 82 82 91 82 82 91 82 82
91 82 82 90 81 81 90 81 81 90 81 81 90 81 81 89 81
81 89 80 80 89 80 80 89 80 80 88 80 80 88 79 79 88
79 79 88 79 79 87 79 79 87 79 79 87 78 78 87 78 78
86 78 78 86 78 78 86 77 77 86 77 77 85 77 77 85 77
77 85 77 77 85 76 76 84 76 76 84 76 76 84 76 76 84
75 75 83 75 75 83 75 75 83 75 75
108 97 97 108 97 97 108 97 97 108 97 97 108 97 97 108 97
97 108 97 97 108 97 97 108 97 97 108 97 97 108 97 97 108
97 97 108 97 97 108 97 97 108 97 97 108 97 97 108 97 97
108 97 97 108 97 97 108 97 97 107 97 97 107 97 97 107 97
97 107 97 97 107 96 96 107 96 96 0 0 0 185 185 185 1
1 1 188 188 188 1 1 1 186 186 186 1 1 1 1 1 1
176 176 176 172 172 172 1 1 1 1 1 1 158 158 158 153 153
153 147 147 147 1 1 1 1 1 1 1 1 1 122 122 122 115
115 115 107 107 107 1 1 1 1 1 1 0 0 0 0 0 0
0 0 0 0 0 0 0 0 0 0 0 0 0 0 0 0 0
0 26 26 26 101 91 91 101 91 91 101 91 91 100 90 90 100
90 90 100 90 90 100 90 90 99 90 90 99 89 89 99 89 89
99 89 89 98 89 89 98 88 88 98 88 88 98 88 88 97 88
88 97 87 87 97 87 87 97 87 87 96 87 87 96 86 86 96
86 86 95 86 86 95 86 86 95 85 85 95 85 85 94 85 85
94 85 85 94 84 84 93 84 84 93 84 84 93 84 84 93 83
83 92 83 83 92 83 83 92 83 83 92 82 82 91 82 82 91
82 82 91 82 82 90 81 81 90 81 81
117 105 105 117 105 105 117 105 105 117 105 105 117 105 105 117 105
105 117 105 105 117 105 105 117 105 105 117 105 105 117 105 105 117
105 105 117 105 105 117 105 105 116 105 105 116 105 105 116 105 105
116 105 105 116 105 105 116 104 104 116 104 104 116 104 104 116 104
104 116 104 104 115 104 104 115 104 104 0 0 0 181 181 181 183
183 183 184 184 184 1 1 1 181 181 181 1 1 1 1 1 1
172 172 172 168 168 168 1 1 1 1 1 1 154 154 154 149 149
149 1 1 1 1 1 1 1 1 1 124 124 124 117 117 117 110
110 110 103 103 103 1 1 1 0 0 0 0 0 0 0 0 0
0 0 0 0 0 0 0 0 0 0 0 0 0 0 0 0 0
0 26 26 26 108 98 98 108 97 97 108 97 97 108 97 97 107
97 97 107 96 96 107 96 96 106 96 96 106 96 96 106 95 95
106 95 95 105 95 95 105 95 95 105 94 94 104 94 94 104 94
94 104 94 94 104 93 93 103 93 93 103 93 93 103 92 92 102
92 92 102 92 92 102 92 92 102 91 91 101 91 91 101 91 91
101 91 91 100 90 90 100 90 90 100 90 90 99 90 90 99 89
89 99 89 89 99 89 89 98 89 89 98 88 88 98 88 88 97
88 88 97 87 87 97 87 87 97 87 87
125 112 112 125 112 112 125 112 112 125 112 112 125 112 112 125 112
112 125 112 112 125 112 112 124 112 112 124 112 112 124 112 112 124
112 112 124 112 112 124 112 112 124 112 112 124 111 111 124 111 111
124 111 111 123 111 111 123 111 111 123 111 111 123 111 111 123 111
111 123 110 110 122 110 110 122 110 110 0 0 0 176 176 176 178
178 178 1 1 1 1 1 1 176 176 176 1 1 1 1 1 1
167 167 167 163 163 163 1 1 1 1 1 1 149 149 149 144 144
144 1 1 1 1 1 1 1 1 1 120 120 120 113 113 113 106
106 106 98 98 98 1 1 1 0 0 0 0 0 0 0 0 0
0 0 0 0 0 0 0 0 0 0 0 0 0 0 0 0 0
0 26 26 26 115 103 103 114 103 103 114 103 103 114 102 102 113
102 102 113 102 102 113 102 102 112 101 101 112 101 101 112 101 101
112 100 100 111 100 100 111 100 100 111 100 100 110 99 99 110 99
99 110 99 99 110 99 99 109 98 98 109 98 98 109 98 98 108
98 98 108 97 97 108 97 97 107 97 97 107 96 96 107 96 96
106 96 96 106 96 96 106 95 95 106 95 95 105 95 95 105 94
94 105 94 94 104 94 94 104 94 94 104 93 93 103 93 93 103
93 93 103 93 93 103 92 92 102 92 92
132 119 119 132 119 119 132 119 119 132 118 118 131 118 118 131 118
118 131 118 118 131 118 118 131 118 118 131 118 118 131 118 118 131
118 118 131 118 118 130 117 117 130 117 117 130 117 117 130 117 117
130 117 117 130 117 117 129 117 117 129 116 116 129 116 116 129 116
116 129 116 116 129 116 116 128 116 116 0 0 0 170 170 170 172
172 172 1 1 1 1 1 1 171 171 171 1 1 1 1 1 1
162 162 162 158 158 158 1 1 1 1 1 1 144 144 144 139 139
139 1 1 1 1 1 1 1 1 1 115 115 115 108 108 108 101
101 101 93 93 93 0 0 0 0 0 0 0 0 0 0 0 0
0 0 0 0 0 0 0 0 0 0 0 0 0 0 0 0 0
0 26 26 26 120 108 108 120 108 108 119 107 107 119 107 107 119
107 107 118 107 107 118 106 106 118 106 106 117 106 106 117 106 106
117 105 105 117 105 105 116 105 105 116 104 104 116 104 104 115 104
104 115 104 104 115 103 103 114 103 103 114 103 103 114 102 102 113
102 102 113 102 102 113 102 102 113 101 101 112 101 101 112 101 101
112 100 100 111 100 100 111 100 100 111 100 100 110 99 99 110 99
99 110 99 99 109 99 99 109 98 98 109 98 98 108 98 98 108
97 97 108 97 97 108 97 97 107 97 97
138 124 124 138 124 124 137 124 124 137 124 124 137 124 124 137 123
123 137 123 123 137 123 123 137 123 123 137 123 123 136 123 123 136
123 123 136 123 123 136 122 122 136 122 122 136 122 122 135 122 122
135 122 122 135 122 122 135 121 121 135 121 121 134 121 121 134 121
121 134 121 121 134 120 120 134 120 120 152 152 152 163 163 163 166
166 166 167 167 167 1 1 1 165 165 165 1 1 1 1 1 1
156 156 156 152 152 152 1 1 1 1 1 1 139 139 139 133 133
133 1 1 1 1 1 1 1 1 1 109 109 109 102 102 102 95
95 95 88 88 88 0 0 0 0 0 0 0 0 0 0 0 0
0 0 0 0 0 0 0 0 0 0 0 0 0 0 0 0 0
0 26 26 26 125 112 112 124 112 112 124 112 112 124 111 111 123
111 111 123 111 111 123 110 110 122 110 110 122 110 110 122 110 110
121 109 109 121 109 109 121 109 109 121 109 109 120 108 108 120 108
108 120 108 108 78 155 16 79 158 16 78 155 16 74 148 15 69
137 14 61 121 13 47 94 10 117 105 105 117 105 105 116 105 105
116 105 105 116 104 104 115 104 104 115 104 104 115 103 103 115 103
103 114 103 103 114 103 103 114 102 102 113 102 102 113 102 102 113
101 101 112 101 101 112 101 101 112 101 101
143 129 129 143 128 128 143 128 128 142 128 128 142 128 128 142 128
128 142 128 128 142 128 128 142 127 127 141 127 127 141 127 127 141
127 127 141 127 127 141 127 127 140 126 126 140 126 126 140 126 126
140 126 126 140 126 126 139 125 125 139 125 125 139 125 125 139 125
125 138 125 125 138 124 124 138 124 124 141 141 141 155 155 155 1
1 1 160 160 160 1 1 1 158 158 158 1 1 1 1 1 1
150 150 150 146 146 146 1 1 1 1 1 1 133 133 133 128 128
128 1 1 1 1 1 1 1 1 1 103 103 103 97 97 97 89
89 89 82 82 82 0 0 0 0 0 0 0 0 0 0 0 0
0 0 0 0 0 0 0 0 0 0 0 0 0 0 0 0 0
0 0 0 0 129 116 116 128 116 116 128 115 115 128 115 115 127
115 115 127 114 114 127 114 114 126 114 114 126 114 114 126 113 113
126 113 113 125 113 113 125 112 112 125 112 112 124 112 112 86 172
18 90 180 18 91 182 19 90 180 18 88 175 18 84 168 17 79
158 16 73 146 15 66 131 14 56 111 12 40 79 8 120 108 108
120 108 108 120 108 108 119 108 108 119 107 107 119 107 107 119 107
107 118 106 106 118 106 106 118 106 106 117 106 106 117 105 105 117
105 105 116 105 105 116 104 104 116 104 104
147 132 132 147 132 132 147 132 132 147 132 132 146 132 132 146 132
132 146 132 132 146 131 131 146 131 131 146 131 131 145 131 131 145
131 131 145 130 130 145 130 130 144 130 130 144 130 130 144 130 130
144 129 129 144 129 129 143 129 129 143 129 129 143 129 129 143 128
128 142 128 128 142 128 128 142 128 128 142 127 127 146 146 146 1
1 1 153 153 153 1 1 1 152 152 152 1 1 1 1 1 1
144 144 144 140 140 140 1 1 1 1 1 1 127 127 127 121 121
121 116 116 116 1 1 1 1 1 1 97 97 97 91 91 91 83
83 83 76 76 76 0 0 0 0 0 0 0 0 0 0 0 0
0 0 0 0 0 0 0 0 0 0 0 0 0 0 0 0 0
0 133 119 119 132 119 119 132 119 119 132 119 119 131 118 118 131
118 118 131 118 118 130 117 117 130 117 117 130 117 117 129 117 117
129 116 116 129 116 116 128 116 116 76 152 16 92 183 19 96 192
20 97 194 20 97 193 20 95 190 19 92 184 19 89 177 18 84
168 17 79 157 16 72 144 15 64 128 13 54 108 11 40 79 8
124 111 111 123 111 111 123 111 111 123 111 111 122 110 110 122 110
110 122 110 110 121 109 109 121 109 109 121 109 109 121 109 109 120
108 108 120 108 108 120 108 108 119 107 107
151 136 136 151 136 136 151 136 136 150 135 135 150 135 135 150 135
135 150 135 135 150 135 135 149 134 134 149 134 134 149 134 134 149
134 134 148 134 134 148 133 133 148 133 133 148 133 133 147 133 133
147 133 133 147 132 132 147 132 132 146 132 132 146 132 132 146 131
131 146 131 131 145 131 131 145 131 131 145 130 130 0 0 0 0
0 0 145 145 145 1 1 1 144 144 144 143 143 143 1 1 1
137 137 137 133 133 133 1 1 1 1 1 1 120 120 120 115 115
115 109 109 109 1 1 1 1 1 1 1 1 1 84 84 84 77
77 77 69 69 69 0 0 0 0 0 0 0 0 0 0 0 0
0 0 0 0 0 0 0 0 0 0 0 0 0 0 0 26 26
26 136 122 122 135 122 122 135 122 122 135 121 121 135 121 121 134
121 121 134 121 121 134 120 120 133 120 120 133 120 120 133 119 119
132 119 119 132 119 119 132 119 119 93 185 19 98 196 20 100 200
20 101 201 21 100 199 20 98 195 20 95 189 19 91 182 19 87
173 18 82 163 17 75 150 15 68 136 14 60 119 12 49 97 10
34 68 7 127 114 114 126 114 114 126 113 113 126 113 113 125 113
113 125 113 113 125 112 112 124 112 112 124 112 112 124 111 111 123
111 111 123 111 111 123 111 111 123 110 110
154 139 139 154 139 139 154 138 138 153 138 138 153 138 138 153 138
138 153 138 138 153 137 137 152 137 137 152 137 137 152 137 137 152
137 137 151 136 136 151 136 136 151 136 136 151 136 136 150 135 135
150 135 135 150 135 135 150 135 135 149 135 135 149 134 134 149 134
134 149 134 134 148 134 134 148 133 133 148 133 133 0 0 0 0
0 0 136 136 136 1 1 1 136 136 136 135 135 135 1 1 1
130 130 130 126 126 126 1 1 1 1 1 1 113 113 113 108 108
108 103 103 103 1 1 1 1 1 1 0 0 0 77 77 77 70
70 70 62 62 62 54 54 54 0 0 0 0 0 0 0 0 0
0 0 0 0 0 0 0 0 0 0 0 0 0 0 0 0 0
0 139 125 125 138 125 125 138 124 124 138 124 124 137 124 124 137
123 123 137 123 123 136 123 123 136 123 123 136 122 122 135 122 122
135 122 122 135 121 121 90 179 18 98 195 20 101 201 21 102 204
21 102 203 21 101 201 21 99 197 20 96 191 20 92 184 19 88
175 18 83 165 17 77 153 16 70 140 14 62 124 13 53 105 11
41 82 9 24 47 5 129 116 116 129 116 116 129 116 116 128 115
115 128 115 115 128 115 115 127 115 115 127 114 114 127 114 114 126
114 114 126 114 114 126 113 113 125 113 113
157 141 141 157 141 141 156 141 141 156 141 141 156 140 140 156 140
140 156 140 140 155 140 140 155 140 140 155 139 139 155 139 139 154
139 139 154 139 139 154 138 138 154 138 138 153 138 138 153 138 138
153 138 138 153 137 137 152 137 137 152 137 137 152 137 137 151 136
136 151 136 136 151 136 136 151 136 136 150 135 135 150 135 135 119
119 119 0 0 0 127 127 127 1 1 1 126 126 126 1 1 1
1 1 1 118 118 118 115 115 115 1 1 1 1 1 1 101 101
101 95 95 95 0 0 0 0 0 0 0 0 0 70 70 70 62
62 62 54 54 54 46 46 46 37 37 37 0 0 0 0 0 0
0 0 0 0 0 0 0 0 0 0 0 0 26 26 26 141 127
127 141 127 127 141 127 127 141 127 127 140 126 126 140 126 126 26
23 23 26 23 23 26 23 23 26 23 23 26 23 23 26 23 23
26 23 23 79 158 16 94 187 19 99 198 20 102 203 21 102 204
21 102 203 21 101 201 21 98 196 20 95 190 19 92 183 19 88
175 18 83 165 17 77 154 16 71 141 15 63 126 13 55 109 11
44 88 9 30 60 6 13 26 3 131 118 118 131 118 118 131 118
118 131 118 118 130 117 117 130 117 117 130 117 117 129 116 116 129
116 116 129 116 116 128 116 116 128 115 115
159 143 143 159 143 143 159 143 143 159 143 143 158 143 143 158 142
142 158 142 142 158 142 142 157 142 142 157 141 141 157 141 141 157
141 141 156 141 141 156 141 141 156 140 140 156 140 140 155 140 140
155 140 140 155 139 139 155 139 139 154 139 139 154 139 139 154 138
138 153 138 138 153 138 138 153 138 138 153 137 137 152 137 137 0
0 0 0 0 0 117 117 117 0 0 0 117 117 117 116 116 116
1 1 1 110 110 110 106 106 106 1 1 1 1 1 1 93 93
93 87 87 87 81 81 81 0 0 0 0 0 0 0 0 0 54
54 54 46 46 46 38 38 38 29 29 29 26 26 26 0 0 0
0 0 0 0 0 0 26 26 26 26 26 26 0 0 0 26 23
23 26 23 23 26 23 23 26 23 23 26 23 23 26 23 23 26
23 23 26 23 23 26 23 23 26 23 23 26 23 23 26 23 23
26 23 23 85 170 17 95 189 19 99 198 20 101 202 21 102 203
21 101 201 21 105 204 26 100 197 23 94 188 19 91 181 19 87
173 18 82 163 17 76 152 16 70 140 14 63 126 13 55 109 11
45 89 9 33 65 7 15 29 3 134 121 121 134 120 120 133 120
120 133 120 120 133 119 119 132 119 119 132 119 119 132 119 119 131
118 118 131 118 118 131 118 118 131 118 118
161 145 145 161 145 145 161 145 145 161 145 145 160 144 144 160 144
144 160 144 144 160 144 144 159 144 144 159 143 143 159 143 143 159
143 143 158 143 143 158 142 142 158 142 142 158 142 142 157 142 142
157 141 141 158 126 16 149 120 15 133 106 14 111 89 12 78 63
8 155 140 140 155 140 140 155 139 139 155 139 139 154 139 139 154
139 139 95 95 95 104 104 104 0 0 0 0 0 0 106 106 106
0 0 0 0 0 0 97 97 97 0 0 0 0 0 0 0 0
0 79 79 79 73 73 73 0 0 0 0 0 0 0 0 0 0
0 0 37 37 37 29 29 29 26 26 26 26 26 26 26 26 26
26 26 26 26 26 26 26 26 26 0 0 0 26 23 23 26 23
23 26 23 23 26 23 23 26 23 23 26 23 23 26 23 23 26
23 23 26 23 23 26 23 23 26 23 23 26 23 23 26 23 23
26 23 23 86 171 18 94 187 19 98 195 20 99 198 20 100 199
20 99 198 20 128 225 51 103 198 27 92 184 19 89 177 18 85
169 17 80 160 16 75 149 15 69 137 14 62 123 13 54 107 11
44 88 9 33 65 7 17 34 4 136 122 122 136 122 122 135 122
122 135 122 122 135 121 121 135 121 121 134 121 121 134 121 121 134
120 120 133 120 120 133 120 120 133 120 120
163 147 147 163 147 147 163 146 146 162 146 146 162 146 146 162 146
146 162 146 146 161 145 145 161 145 145 161 145 145 161 145 145 160
144 144 160 144 144 160 144 144 160 144 144 159 143 143 188 150 19
186 149 19 175 140 18 161 129 17 143 115 15 123 98 13 99 79
10 70 56 7 26 21 3 157 141 141 156 141 141 156 140 140 156
140 140 155 140 140 0 0 0 93 93 93 0 0 0 95 95 95
93 93 93 0 0 0 88 88 88 84 84 84 0 0 0 0 0
0 69 69 69 64 64 64 57 57 57 0 0 0 0 0 0 0
0 0 0 0 0 26 26 26 26 26 26 26 26 26 26 26 26
26 26 26 26 26 26 0 0 0 26 23 23 26 23 23 26 23
23 26 23 23 26 23 23 26 23 23 26 23 23 26 23 23 26
23 23 26 23 23 26 23 23 26 23 23 26 23 23 26 23 23
26 23 23 84 167 17 91 182 19 95 190 19 97 193 20 97 194
20 96 192 20 95 189 19 93 185 19 90 179 18 86 172 18 82
164 17 78 155 16 72 144 15 66 132 14 60 119 12 52 103 11
43 85 9 32 63 7 17 34 4 138 124 124 138 124 124 137 124
124 137 123 123 137 123 123 137 123 123 136 123 123 136 122 122 136
122 122 135 122 122 135 122 122 135 121 121
165 148 148 165 148 148 164 148 148 164 148 148 164 147 147 164 147
147 163 147 147 163 147 147 163 147 147 162 146 146 162 146 146 162
146 146 162 146 146 161 145 145 161 145 145 200 160 20 198 159 20
189 151 19 176 141 18 161 129 17 143 115 15 124 99 13 101 81
11 75 60 8 44 35 5 26 21 3 158 142 142 158 142 142 157
142 142 157 141 141 157 141 141 0 0 0 80 80 80 0 0 0
81 81 81 0 0 0 0 0 0 73 73 73 69 69 69 0 0
0 0 0 0 53 53 53 47 47 47 40 40 40 0 0 0 0
0 0 0 0 0 0 0 0 0 0 0 0 0 0 0 0 0
0 0 0 0 0 0 26 23 23 26 23 23 26 23 23 26 23
23 26 23 23 26 23 23 26 23 23 26 23 23 26 23 23 26
23 23 26 23 23 26 23 23 26 23 23 26 23 23 26 23 23
26 23 23 80 160 16 88 175 18 91 182 19 93 186 19 94 187
19 93 185 19 91 182 19 89 178 18 86 172 18 83 166 17 79
158 16 74 148 15 69 138 14 63 126 13 57 113 12 49 97 10
40 79 8 29 58 6 15 30 3 13 26 3 140 126 126 139 125
125 139 125 125 139 125 125 138 125 125 138 124 124 138 124 124 138
124 124 137 124 124 137 123 123 137 123 123
166 150 150 166 149 149 166 149 149 165 149 149 165 149 149 165 148
148 165 148 148 164 148 148 164 148 148 164 148 148 164 147 147 163
147 147 163 147 147 163 147 147 200 160 20 204 163 21 197 158 20
186 149 19 173 138 18 157 126 16 139 112 14 120 96 12 98 78
10 73 59 8 45 36 5 26 21 3 159 143 143 159 143 143 159
143 143 158 143 143 158 142 142 158 142 142 0 0 0 65 65 65
0 0 0 66 66 66 0 0 0 0 0 0 57 57 57 53 53
53 0 0 0 0 0 0 36 36 36 29 29 29 26 26 26 26
26 26 0 0 0 0 0 0 0 0 0 0 0 0 0 0 0
26 26 26 26 23 23 26 23 23 26 23 23 26 23 23 26 23
23 26 23 23 26 23 23 26 23 23 26 23 23 26 23 23 26
23 23 26 23 23 26 23 23 26 23 23 26 23 23 26 23 23
26 23 23 75 149 15 83 165 17 87 173 18 89 177 18 89 178
18 89 177 18 87 174 18 85 170 17 83 165 17 79 158 16 75
150 15 71 141 15 65 130 13 60 119 12 53 105 11 45 90 9
36 72 8 25 50 5 13 26 3 13 26 3 141 127 127 141 127
127 141 127 127 140 126 126 140 126 126 140 126 126 140 126 126 139
125 125 139 125 125 139 125 125 138 125 125
167 151 151 167 150 150 167 150 150 167 150 150 166 150 150 166 150
150 166 149 149 166 149 149 165 149 149 165 149 149 165 148 148 165
148 148 164 148 148 164 148 148 203 162 21 200 160 20 191 153 20
194 158 32 166 133 17 150 120 15 133 106 14 113 91 12 91 73
10 67 54 7 40 32 4 26 21 3 26 21 3 160 144 144 160
144 144 160 144 144 159 144 144 159 143 143 159 143 143 0 0 0
48 48 48 0 0 0 49 49 49 0 0 0 0 0 0 39 39
39 34 34 34 0 0 0 0 0 0 0 0 0 26 26 26 26
26 26 26 26 26 26 26 26 26 26 26 26 26 26 0 0 0
26 23 23 26 23 23 26 23 23 26 23 23 26 23 23 26 23
23 26 23 23 26 23 23 26 23 23 26 23 23 26 23 23 26
23 23 26 23 23 26 23 23 26 23 23 26 23 23 26 23 23
26 23 23 67 133 14 77 153 16 81 162 17 83 166 17 84 168
17 84 167 17 83 165 17 81 161 17 78 155 16 75 149 15 71
141 15 66 132 14 61 121 13 55 110 11 48 96 10 41 81 9
31 62 7 20 40 4 13 26 3 143 129 129 143 129 129 143 128
128 142 128 128 142 128 128 142 128 128 141 127 127 141 127 127 141
127 127 141 127 127 140 126 126 140 126 126
168 152 152 168 151 151 168 151 151 168 151 151 167 151 151 167 151
151 167 150 150 167 150 150 166 150 150 166 150 150 166 149 149 166
149 149 165 149 149 189 151 19 197 158 20 192 154 20 183 147 19
174 140 20 157 126 16 141 113 15 124 99 13 104 83 11 83 66
9 59 47 6 32 26 4 26 21 3 26 21 3 161 145 145 161
145 145 161 145 145 161 145 145 160 144 144 160 144 144 160 144 144
159 144 144 26 26 26 0 0 0 28 28 28 0 0 0 0 0
0 26 26 26 26 26 26 26 26 26 0 0 0 0 0 0 0
0 0 0 0 0 0 0 0 0 0 0 26 23 23 26 23 23
26 23 23 26 23 23 26 23 23 26 23 23 26 23 23 26 23
23 26 23 23 26 23 23 26 23 23 26 23 23 26 23 23 26
23 23 26 23 23 26 23 23 26 23 23 26 23 23 26 23 23
150 135 135 55 109 11 69 137 14 74 148 15 77 154 16 78 156
16 78 155 16 77 153 16 75 150 15 72 144 15 69 138 14 65
130 13 61 121 13 56 111 12 50 99 10 43 85 9 35 69 7
26 51 6 14 28 3 13 26 3 26 23 23 26 23 23 144 130
130 144 129 129 143 129 129 143 129 129 143 129 129 143 128 128 142
128 128 142 128 128 142 128 128 142 127 127
169 153 153 169 152 152 169 152 152 169 152 152 168 152 152 168 151
151 168 151 151 168 151 151 167 151 151 167 150 150 167 150 150 167
150 150 166 150 150 184 147 19 188 150 19 182 146 19 173 138 18
161 129 17 146 117 15 130 104 13 113 90 12 93 75 10 72 57
8 48 38 5 26 21 3 26 21 3 26 21 3 162 146 146 162
146 146 162 146 146 162 146 146 161 145 145 161 145 145 161 145 145
161 145 145 160 144 144 160 144 144 26 23 23 0 0 0 26 26
26 0 0 0 0 0 0 0 0 0 26 26 26 26 26 26 26
26 26 26 23 23 26 23 23 26 23 23 26 23 23 26 23 23
26 23 23 26 23 23 26 23 23 26 23 23 26 23 23 26 23
23 26 23 23 26 23 23 26 23 23 26 23 23 26 23 23 26
23 23 153 137 137 152 137 137 152 137 137 152 137 137 152 136 136
151 136 136 151 136 136 58 116 12 66 131 14 69 138 14 71 142
15 71 142 15 70 140 14 69 137 14 66 132 14 63 126 13 59
118 12 55 109 11 49 98 10 43 86 9 36 72 8 28 56 6
18 36 4 13 26 3 13 26 3 26 23 23 26 23 23 26 23
23 26 23 23 26 23 23 26 23 23 26 23 23 144 130 130 144
129 129 143 129 129 143 129 129 143 129 129
170 153 153 170 153 153 170 153 153 170 153 153 169 152 152 169 152
152 169 152 152 169 152 152 168 152 152 168 151 151 168 151 151 168
151 151 167 151 151 172 138 18 176 141 18 170 136 17 160 128 16
148 119 15 134 107 14 118 94 12 100 80 10 80 64 8 59 47
6 35 28 4 26 21 3 26 21 3 26 21 3 163 147 147 163
147 147 163 147 147 163 146 146 162 146 146 162 146 146 162 146 146
161 145 145 161 145 145 161 145 145 161 145 145 26 23 23 26 23
23 26 23 23 26 23 23 26 23 23 26 23 23 26 23 23 26
23 23 26 23 23 26 23 23 26 23 23 26 23 23 26 23 23
26 23 23 26 23 23 26 23 23 26 23 23 26 23 23 26 23
23 26 23 23 155 140 140 155 139 139 155 139 139 154 139 139 154
139 139 154 138 138 153 138 138 153 138 138 153 138 138 153 137 137
152 137 137 152 137 137 40 80 8 55 109 11 60 120 12 63 125
13 63 126 13 63 125 13 61 122 13 59 117 12 56 111 12 52
104 11 48 95 10 42 84 9 36 72 8 29 57 6 20 40 4
13 26 3 13 26 3 26 23 23 26 23 23 26 23 23 26 23
23 26 23 23 26 23 23 26 23 23 26 23 23 26 23 23 26
23 23 145 130 130 144 130 130 144 130 130
171 154 154 171 154 154 171 154 154 170 153 153 170 153 153 170 153
153 170 153 153 169 152 152 169 152 152 169 152 152 169 152 152 168
152 152 168 151 151 153 123 16 160 128 16 155 124 16 146 117 15
134 107 14 119 96 12 103 83 11 86 69 9 66 53 7 44 35
5 26 21 3 26 21 3 26 21 3 26 21 3 164 148 148 164
148 148 164 147 147 163 147 147 163 147 147 163 147 147 26 23 23
162 146 146 162 146 146 162 146 146 162 145 145 161 145 145 161 145
145 161 145 145 161 145 145 160 144 144 160 144 144 160 144 144 159
144 144 159 143 143 159 143 143 159 143 143 158 143 143 158 142 142
158 142 142 158 142 142 157 142 142 157 141 141 157 141 141 157 141
141 156 141 141 156 140 140 156 140 140 156 140 140 155 140 140 155
140 140 155 139 139 154 139 139 154 139 139 154 139 139 154 138 138
153 138 138 153 138 138 153 138 138 38 75 8 48 95 10 52 104
11 54 107 11 54 107 11 53 105 11 51 101 11 48 95 10 44
87 9 39 78 8 34 67 7 27 54 6 20 39 4 13 26 3
13 26 3 13 26 3 26 23 23 26 23 23 26 23 23 26 23
23 26 23 23 26 23 23 26 23 23 26 23 23 26 23 23 26
23 23 146 131 131 146 131 131 145 131 131
172 155 155 171 154 154 171 154 154 171 154 154 171 154 154 171 154
154 170 153 153 170 153 153 170 153 153 170 153 153 169 152 152 169
152 152 169 152 152 169 152 152 141 113 15 138 110 14 129 103 13
117 94 12 103 83 11 87 70 9 69 55 7 49 39 5 27 21
3 26 21 3 26 21 3 26 21 3 26 23 23 26 23 23 26
23 23 26 23 23 26 23 23 26 23 23 26 23 23 26 23 23
26 23 23 26 23 23 26 23 23 162 146 146 162 146 146 162 146
146 162 146 146 161 145 145 161 145 145 161 145 145 161 145 145 160
144 144 160 144 144 160 144 144 160 144 144 159 143 143 159 143 143
159 143 143 159 143 143 158 142 142 158 142 142 158 142 142 157 142
142 157 142 142 157 141 141 157 141 141 156 141 141 156 141 141 156
140 140 156 140 140 155 140 140 155 140 140 155 139 139 155 139 139
154 139 139 154 139 139 154 139 139 154 138 138 28 56 6 38 75
8 41 82 9 43 85 9 42 84 9 40 80 8 38 75 8 34
67 7 29 58 6 23 46 5 16 32 4 13 26 3 13 26 3
13 26 3 26 23 23 26 23 23 26 23 23 26 23 23 26 23
23 26 23 23 26 23 23 26 23 23 26 23 23 26 23 23 26
23 23 147 132 132 147 132 132 147 132 132
172 155 155 172 155 155 172 155 155 172 155 155 171 154 154 171 154
154 171 154 154 171 154 154 170 153 153 170 153 153 170 153 153 170
153 153 169 153 153 169 152 152 114 92 12 116 93 12 109 87 11
98 78 10 84 67 9 68 55 7 50 40 5 29 24 3 26 21
3 26 21 3 26 21 3 26 21 3 26 23 23 26 23 23 26
23 23 26 23 23 26 23 23 26 23 23 26 23 23 26 23 23
26 23 23 26 23 23 163 147 147 163 147 147 163 147 147 163 146
146 162 146 146 162 146 146 162 146 146 162 146 146 161 145 145 161
145 145 161 145 145 161 145 145 160 144 144 160 144 144 160 144 144
160 144 144 159 143 143 159 143 143 159 143 143 159 143 143 158 143
143 158 142 142 158 142 142 158 142 142 157 142 142 157 141 141 157
141 141 157 141 141 156 141 141 156 141 141 156 140 140 156 140 140
155 140 140 155 140 140 155 139 139 155 139 139 154 139 139 154 139
139 24 47 5 27 54 6 28 56 6 27 54 6 25 49 5 21
42 5 16 32 4 13 26 3 13 26 3 13 26 3 26 23 23
26 23 23 26 23 23 26 23 23 26 23 23 26 23 23 26 23
23 26 23 23 26 23 23 26 23 23 26 23 23 149 134 134 148
134 134 148 133 133 148 133 133 148 133 133
173 156 156 173 155 155 172 155 155 172 155 155 172 155 155 172 155
155 171 154 154 171 154 154 171 154 154 171 154 154 170 153 153 170
153 153 170 153 153 170 153 153 170 153 153 87 69 9 84 67 9
75 60 8 61 49 7 46 37 5 27 22 3 26 21 3 26 21
3 26 21 3 26 21 3 26 23 23 26 23 23 26 23 23 26
23 23 26 23 23 26 23 23 26 23 23 26 23 23 26 23 23
165 148 148 164 148 148 164 148 148 164 148 148 164 147 147 163 147
147 163 147 147 163 147 147 163 146 146 162 146 146 162 146 146 162
146 146 162 145 145 161 145 145 161 145 145 161 145 145 161 145 145
160 144 144 160 144 144 160 144 144 160 144 144 159 143 143 159 143
143 159 143 143 159 143 143 158 143 143 158 142 142 158 142 142 158
142 142 157 142 142 157 141 141 157 141 141 157 141 141 156 141 141
156 141 141 156 140 140 156 140 140 155 140 140 155 140 140 155 139
139 155 139 139 26 23 23 13 26 3 13 26 3 13 26 3 13
26 3 13 26 3 13 26 3 26 23 23 26 23 23 26 23 23
26 23 23 26 23 23 26 23 23 26 23 23 26 23 23 26 23
23 26 23 23 26 23 23 150 135 135 150 135 135 150 135 135 149
134 134 149 134 134 149 134 134 149 134 134
173 156 156 173 156 156 173 156 156 173 155 155 172 155 155 172 155
155 172 155 155 172 155 155 172 154 154 171 154 154 171 154 154 171
154 154 171 154 154 170 153 153 170 153 153 170 153 153 45 36 5
43 35 5 32 26 4 26 21 3 26 21 3 26 21 3 26 21
3 26 23 23 26 23 23 26 23 23 26 23 23 26 23 23 26
23 23 26 23 23 26 23 23 166 149 149 166 149 149 165 149 149
165 149 149 165 149 149 165 148 148 164 148 148 164 148 148 164 148
148 164 147 147 164 147 147 163 147 147 163 147 147 163 147 147 163
146 146 162 146 146 162 146 146 162 146 146 162 145 145 161 145 145
161 145 145 161 145 145 161 145 145 160 144 144 160 144 144 160 144
144 160 144 144 159 143 143 159 143 143 159 143 143 159 143 143 158
143 143 158 142 142 158 142 142 158 142 142 157 142 142 157 142 142
157 141 141 157 141 141 156 141 141 156 141 141 156 140 140 156 140
140 155 140 140 155 140 140 155 140 140 155 139 139 26 23 23 26
23 23 26 23 23 26 23 23 26 23 23 26 23 23 26 23 23
26 23 23 26 23 23 26 23 23 152 137 137 152 137 137 152 137
137 151 136 136 151 136 136 151 136 136 151 136 136 151 136 136 150
135 135 150 135 135 150 135 135 150 135 135
174 157 157 174 156 156 173 156 156 173 156 156 173 156 156 173 155
155 172 155 155 172 155 155 172 155 155 172 155 155 172 154 154 171
154 154 171 154 154 171 154 154 171 154 154 170 153 153 170 153 153
170 153 153 26 23 23 26 23 23 26 23 23 26 23 23 26 23
23 26 23 23 26 23 23 26 23 23 26 23 23 167 151 151 167
151 151 167 150 150 167 150 150 167 150 150 166 150 150 166 149 149
166 149 149 166 149 149 165 149 149 165 149 149 165 148 148 165 148
148 164 148 148 164 148 148 164 148 148 164 147 147 163 147 147 163
147 147 163 147 147 163 146 146 162 146 146 162 146 146 162 146 146
162 146 146 161 145 145 161 145 145 161 145 145 161 145 145 161 145
145 160 144 144 160 144 144 160 144 144 160 144 144 159 143 143 159
143 143 159 143 143 159 143 143 158 143 143 158 142 142 158 142 142
158 142 142 157 142 142 157 142 142 157 141 141 157 141 141 157 141
141 156 141 141 156 140 140 156 140 140 156 140 140 155 140 140 155
140 140 155 139 139 155 139 139 154 139 139 154 139 139 154 139 139
154 138 138 153 138 138 153 138 138 153 138 138 153 138 138 153 137
137 152 137 137 152 137 137 152 137 137 152 136 136 151 136 136 151
136 136 151 136 136 151 136 136 150 135 135
174 157 157 174 157 157 174 156 156 174 156 156 173 156 156 173 156
156 173 156 156 173 155 155 172 155 155 172 155 155 172 155 155 172
155 155 172 154 154 171 154 154 171 154 154 171 154 154 171 154 154
170 153 153 170 153 153 170 153 153 170 153 153 169 153 153 169 152
152 169 152 152 169 152 152 168 152 152 168 151 151 168 151 151 168
151 151 168 151 151 167 151 151 167 150 150 167 150 150 167 150 150
166 150 150 166 150 150 166 149 149 166 149 149 165 149 149 165 149
149 165 148 148 165 148 148 164 148 148 164 148 148 164 148 148 164
147 147 164 147 147 163 147 147 163 147 147 163 147 147 163 146 146
162 146 146 162 146 146 162 146 146 162 146 146 161 145 145 161 145
145 161 145 145 161 145 145 160 144 144 160 144 144 160 144 144 160
144 144 160 144 144 159 143 143 159 143 143 159 143 143 159 143 143
158 143 143 158 142 142 158 142 142 158 142 142 157 142 142 157 142
142 157 141 141 157 141 141 157 141 141 156 141 141 156 141 141 156
140 140 156 140 140 155 140 140 155 140 140 155 139 139 155 139 139
154 139 139 154 139 139 154 139 139 154 138 138 154 138 138 153 138
138 153 138 138 153 138 138 153 137 137 152 137 137 152 137 137 152
137 137 152 137 137 152 136 136 151 136 136
175 157 157 174 157 157 174 157 157 174 157 157 174 156 156 174 156
156 173 156 156 173 156 156 173 156 156 173 155 155 172 155 155 172
155 155 172 155 155 172 155 155 171 154 154 171 154 154 171 154 154
171 154 154 171 154 154 170 153 153 170 153 153 170 153 153 170 153
153 169 153 153 169 152 152 169 152 152 169 152 152 168 152 152 168
151 151 168 151 151 168 151 151 168 151 151 167 151 151 167 150 150
167 150 150 167 150 150 166 150 150 166 150 150 166 149 149 166 149
149 165 149 149 165 149 149 165 149 149 165 148 148 165 148 148 164
148 148 164 148 148 164 148 148 164 147 147 163 147 147 163 147 147
163 147 147 163 146 146 162 146 146 162 146 146 162 146 146 162 146
146 162 145 145 161 145 145 161 145 145 161 145 145 161 145 145 160
144 144 160 144 144 160 144 144 160 144 144 159 144 144 159 143 143
159 143 143 159 143 143 159 143 143 158 143 143 158 142 142 158 142
142 158 142 142 157 142 142 157 142 142 157 141 141 157 141 141 157
141 141 156 141 141 156 141 141 156 140 140 156 140 140 155 140 140
155 140 140 155 140 140 155 139 139 155 139 139 154 139 139 154 139
139 154 139 139 154 138 138 153 138 138 153 138 138 153 138 138 153
138 138 153 137 137 152 137 137 152 137 137
175 158 158 175 157 157 175 157 157 174 157 157 174 157 157 174 157
157 174 156 156 173 156 156 173 156 156 173 156 156 173 156 156 173
155 155 172 155 155 172 155 155 172 155 155 172 155 155 171 154 154
171 154 154 171 154 154 171 154 154 171 154 154 170 153 153 170 153
153 170 153 153 170 153 153 169 152 152 169 152 152 169 152 152 169
152 152 168 152 152 168 151 151 168 151 151 168 151 151 168 151 151
167 151 151 167 150 150 167 150 150 167 150 150 166 150 150 166 150
150 166 149 149 166 149 149 166 149 149 165 149 149 165 149 149 165
148 148 165 148 148 164 148 148 164 148 148 164 148 148 164 147 147
163 147 147 163 147 147 163 147 147 163 147 147 163 146 146 162 146
146 162 146 146 162 146 146 162 146 146 161 145 145 161 145 145 161
145 145 161 145 145 161 145 145 160 144 144 160 144 144 160 144 144
160 144 144 159 144 144 159 143 143 159 143 143 159 143 143 159 143
143 158 143 143 158 142 142 158 142 142 158 142 142 157 142 142 157
142 142 157 141 141 157 141 141 157 141 141 156 141 141 156 141 141
156 140 140 156 140 140 155 140 140 155 140 140 155 140 140 155 139
139 155 139 139 154 139 139 154 139 139 154 139 139 154 138 138 153
138 138 153 138 138 153 138 138 153 138 138
