P3
64 64
255
83 74 74 82 74 74 82 74 74 82 74 74 81 73 73 81 73
73 81 73 73 80 72 72 80 72 72 80 72 72 79 71 71 79
71 71 79 71 71 78 70 70 78 70 70 77 70 70 77 69 69
77 69 69 76 69 69 76 68 68 75 68 68 75 67 67 74 67
67 74 67 67 74 66 66 73 66 66 73 65 65 72 65 65 72
65 65 71 64 64 71 64 64 70 63 63 246 221 221 246 222 222
246 222 222 247 222 222 247 222 222 247 222 222 247 222 222 247 222
222 247 222 222 247 222 222 247 222 222 247 222 222 247 222 222 247
222 222 247 222 222 247 222 222 247 222 222 247 222 222 246 222 222
246 222 222 246 222 222 246 221 221 246 221 221 246 221 221 245 221
221 245 221 221 245 221 221 245 220 220 245 220 220 245 220 220 244
220 220 244 220 220
83 74 74 82 74 74 82 74 74 82 73 73 81 73 73 81 73
73 81 73 73 80 72 72 80 72 72 80 72 72 79 71 71 79
71 71 78 71 71 78 70 70 78 70 70 77 70 70 77 69 69
76 69 69 76 69 69 76 68 68 75 68 68 75 67 67 74 67
67 74 67 67 73 66 66 73 66 66 73 65 65 72 65 65 72
64 64 71 64 64 71 64 64 70 63 63 245 221 221 246 221 221
246 221 221 246 222 222 246 222 222 246 222 222 247 222 222 247 222
222 247 222 222 247 222 222 247 222 222 247 222 222 247 222 222 247
222 222 246 222 222 246 222 222 246 222 222 246 222 222 246 221 221
246 221 221 246 221 221 246 221 221 245 221 221 245 221 221 245 221
221 245 220 220 245 220 220 245 220 220 244 220 220 244 220 220 244
220 220 244 219 219
82 74 74 82 74 74 82 74 74 81 73 73 81 73 73 81 73
73 80 72 72 80 72 72 80 72 72 79 72 72 79 71 71 79
71 71 78 71 71 78 70 70 78 70 70 77 69 69 77 69 69
76 69 69 76 68 68 76 68 68 75 68 68 75 67 67 74 67
67 74 66 66 73 66 66 73 66 66 72 65 65 72 65 65 71
64 64 71 64 64 70 63 63 70 63 63 245 220 220 245 221 221
245 221 221 246 221 221 246 221 221 246 221 221 246 222 222 246 222
222 246 222 222 246 222 222 246 222 222 246 222 222 246 222 222 246
222 222 246 221 221 246 221 221 246 221 221 246 221 221 246 221 221
245 221 221 245 221 221 245 221 221 245 221 221 245 220 220 245 220
220 244 220 220 244 220 220 244 220 220 244 220 220 244 219 219 244
219 219 243 219 219
82 74 74 82 74 74 82 74 74 81 73 73 81 73 73 81 73
73 80 72 72 80 72 72 80 72 72 79 71 71 79 71 71 79
71 71 78 70 70 78 70 70 77 70 70 77 69 69 77 69 69
76 69 69 76 68 68 75 68 68 75 68 68 75 67 67 74 67
67 74 66 66 73 66 66 73 66 66 72 65 65 72 65 65 71
64 64 71 64 64 70 63 63 70 63 63 244 220 220 245 220 220
245 221 221 245 221 221 245 221 221 246 221 221 246 221 221 246 221
221 246 221 221 246 221 221 246 221 221 246 221 221 246 221 221 246
221 221 246 221 221 245 221 221 245 221 221 245 221 221 245 221 221
245 221 221 245 220 220 245 220 220 245 220 220 244 220 220 244 220
220 244 220 220 244 220 220 244 219 219 243 219 219 243 219 219 243
219 219 243 219 219
82 74 74 82 74 74 81 73 73 81 73 73 81 73 73 80 72
72 80 72 72 80 72 72 79 72 72 79 71 71 79 71 71 78
71 71 78 70 70 78 70 70 77 70 70 77 69 69 76 69 69
76 69 69 76 68 68 75 68 68 75 67 67 74 67 67 74 67
67 74 66 66 73 66 66 73 65 65 72 65 65 72 65 65 71
64 64 71 64 64 70 63 63 70 63 63 244 220 220 244 220 220
245 220 220 245 220 220 245 220 220 245 221 221 245 221 221 245 221
221 245 221 221 245 221 221 245 221 221 245 221 221 245 221 221 245
221 221 245 221 221 245 221 221 245 220 220 245 220 220 245 220 220
245 220 220 244 220 220 244 220 220 244 220 220 244 220 220 244 219
219 244 219 219 243 219 219 243 219 219 243 219 219 243 219 219 243
218 218 242 218 218
82 74 74 82 74 74 81 73 73 81 73 73 81 73 73 80 72
72 80 72 72 80 72 72 79 71 71 79 71 71 79 71 71 78
70 70 78 70 70 78 70 70 77 69 69 77 69 69 76 69 69
76 68 68 76 68 68 75 68 68 75 67 67 74 67 67 74 67
67 73 66 66 73 66 66 73 65 65 72 65 65 72 64 64 71
64 64 71 64 64 70 63 63 70 63 63 243 219 219 244 219 219
244 220 220 244 220 220 244 220 220 245 220 220 245 220 220 245 220
220 245 220 220 245 220 220 245 220 220 245 220 220 245 220 220 245
220 220 245 220 220 245 220 220 244 220 220 244 220 220 244 220 220
244 220 220 244 220 220 244 220 220 244 219 219 244 219 219 243 219
219 243 219 219 243 219 219 243 219 219 243 218 218 242 218 218 242
218 218 242 218 218
82 74 74 81 73 73 81 73 73 81 73 73 81 73 73 80 72
72 80 72 72 80 72 72 79 71 71 79 71 71 78 71 71 78
70 70 78 70 70 77 70 70 77 69 69 77 69 69 76 69 69
76 68 68 75 68 68 75 68 68 75 67 67 74 67 67 74 66
66 73 66 66 73 66 66 72 65 65 72 65 65 71 64 64 71
64 64 71 64 64 70 63 63 70 63 63 243 219 219 243 219 219
244 219 219 244 219 219 244 220 220 244 220 220 244 220 220 244 220
220 244 220 220 244 220 220 244 220 220 244 220 220 244 220 220 244
220 220 244 220 220 244 220 220 244 220 220 244 220 220 244 219 219
244 219 219 244 219 219 243 219 219 243 219 219 243 219 219 243 219
219 243 219 219 243 218 218 242 218 218 242 218 218 242 218 218 242
218 218 242 218 218
82 73 73 81 73 73 81 73 73 81 73 73 80 72 72 80 72
72 80 72 72 79 71 71 79 71 71 79 71 71 78 71 71 78
70 70 78 70 70 77 70 70 77 69 69 76 69 69 76 69 69
76 68 68 75 68 68 75 67 67 74 67 67 74 67 67 74 66
66 73 66 66 73 66 66 72 65 65 72 65 65 71 64 64 71
64 64 70 63 63 70 63 63 69 63 63 242 218 218 243 218 218
243 219 219 243 219 219 243 219 219 244 219 219 244 219 219 244 219
219 244 219 219 244 219 219 244 219 219 244 219 219 244 219 219 244
219 219 244 219 219 244 219 219 244 219 219 243 219 219 243 219 219
243 219 219 243 219 219 243 219 219 243 219 219 243 218 218 242 218
218 242 218 218 242 218 218 242 218 218 242 218 218 242 217 217 241
217 217 241 217 217
81 73 73 81 73 73 81 73 73 81 73 73 80 72 72 80 72
72 80 72 72 79 71 71 79 71 71 79 71 71 78 70 70 78
70 70 77 70 70 77 69 69 77 69 69 76 69 69 76 68 68
76 68 68 75 68 68 75 67 67 74 67 67 74 67 67 73 66
66 73 66 66 73 65 65 72 65 65 72 65 65 71 64 64 71
64 64 70 63 63 70 63 63 69 62 62 242 218 218 242 218 218
242 218 218 243 218 218 243 219 219 243 219 219 243 219 219 243 219
219 243 219 219 243 219 219 243 219 219 243 219 219 243 219 219 243
219 219 243 219 219 243 219 219 243 219 219 243 219 219 243 219 219
243 218 218 243 218 218 242 218 218 242 218 218 242 218 218 242 218
218 242 218 218 242 218 218 242 217 217 241 217 217 241 217 217 241
217 217 241 217 217
81 73 73 81 73 73 81 73 73 80 72 72 80 72 72 80 72
72 79 71 71 79 71 71 79 71 71 78 71 71 78 70 70 78
70 70 77 70 70 77 69 69 77 69 69 76 69 69 76 68 68
75 68 68 75 68 68 75 67 67 74 67 67 74 66 66 73 66
66 73 66 66 72 65 65 72 65 65 72 64 64 71 64 64 71
64 64 70 63 63 70 63 63 69 62 62 241 217 217 242 218 218
242 218 218 242 218 218 242 218 218 242 218 218 243 218 218 243 218
218 243 219 219 243 219 219 243 219 219 243 219 219 243 219 219 243
219 219 243 218 218 243 218 218 243 218 218 242 218 218 242 218 218
242 218 218 242 218 218 242 218 218 242 218 218 242 218 218 242 217
217 241 217 217 241 217 217 241 217 217 241 217 217 241 217 217 241
217 217 240 216 216
81 73 73 81 73 73 80 72 72 80 72 72 80 72 72 80 72
72 79 71 71 79 71 71 79 71 71 78 70 70 78 70 70 78
70 70 77 69 69 77 69 69 76 69 69 76 68 68 76 68 68
75 68 68 75 67 67 74 67 67 74 67 67 74 66 66 73 66
66 73 66 66 72 65 65 72 65 65 71 64 64 71 64 64 71
64 64 70 63 63 70 63 63 69 62 62 241 217 217 241 217 217
241 217 217 242 217 217 242 218 218 242 218 218 242 218 218 242 218
218 242 218 218 242 218 218 242 218 218 242 218 218 242 218 218 242
218 218 242 218 218 242 218 218 242 218 218 242 218 218 242 218 218
242 218 218 242 217 217 241 217 217 241 217 217 241 217 217 241 217
217 241 217 217 241 217 217 241 217 217 240 216 216 240 216 216 240
216 216 240 216 216
81 73 73 81 73 73 80 72 72 80 72 72 80 72 72 79 71
71 79 71 71 79 71 71 78 71 71 78 70 70 78 70 70 77
70 70 77 69 69 77 69 69 76 69 69 76 68 68 76 68 68
75 68 68 75 67 67 74 67 67 74 67 67 74 66 66 73 66
66 73 65 65 72 65 65 72 65 65 71 64 64 71 64 64 70
63 63 70 63 63 69 63 63 69 62 62 240 216 216 240 216 216
241 217 217 241 217 217 241 217 217 241 217 217 241 217 217 242 217
217 242 218 218 242 218 218 242 218 218 242 218 218 242 218 218 242
218 218 242 218 218 242 217 217 241 217 217 241 217 217 241 217 217
241 217 217 241 217 217 241 217 217 241 217 217 241 217 217 241 217
217 240 216 216 240 216 216 240 216 216 240 216 216 240 216 216 240
216 216 239 216 216
81 73 73 80 72 72 80 72 72 80 72 72 80 72 72 79 71
71 79 71 71 79 71 71 78 70 70 78 70 70 78 70 70 77
70 70 77 69 69 76 69 69 76 69 69 76 68 68 75 68 68
75 68 68 75 67 67 74 67 67 74 66 66 73 66 66 73 66
66 73 65 65 72 65 65 72 65 65 71 64 64 71 64 64 70
63 63 70 63 63 69 62 62 69 62 62 240 216 216 240 216 216
240 216 216 240 216 216 241 217 217 241 217 217 241 217 217 241 217
217 241 217 217 241 217 217 241 217 217 241 217 217 241 217 217 241
217 217 241 217 217 241 217 217 241 217 217 241 217 217 241 217 217
241 217 217 241 217 217 240 216 216 240 216 216 240 216 216 240 216
216 240 216 216 240 216 216 240 216 216 239 216 216 239 215 215 239
215 215 239 215 215
81 73 73 80 72 72 80 72 72 80 72 72 79 71 71 79 71
71 79 71 71 78 71 71 78 70 70 78 70 70 77 70 70 77
69 69 77 69 69 76 69 69 76 68 68 76 68 68 75 68 68
75 67 67 74 67 67 74 67 67 74 66 66 73 66 66 73 66
66 72 65 65 72 65 65 72 64 64 71 64 64 71 64 64 70
63 63 70 63 63 69 62 62 69 62 62 239 215 215 239 215 215
240 216 216 240 216 216 240 216 216 240 216 216 240 216 216 240 216
216 240 216 216 241 217 217 241 217 217 241 217 217 241 217 217 241
217 217 241 217 217 240 216 216 240 216 216 240 216 216 240 216 216
240 216 216 240 216 216 240 216 216 240 216 216 240 216 216 240 216
216 239 216 216 239 215 215 239 215 215 239 215 215 239 215 215 239
215 215 239 215 215
80 72 72 80 72 72 80 72 72 79 72 72 79 71 71 79 71
71 79 71 71 78 70 70 78 70 70 78 70 70 77 70 70 77
69 69 77 69 69 76 69 69 76 68 68 75 68 68 75 68 68
75 67 67 74 67 67 74 67 67 73 66 66 73 66 66 73 65
65 72 65 65 72 65 65 71 64 64 71 64 64 70 63 63 70
63 63 70 63 63 69 62 62 69 62 62 238 215 215 239 215 215
239 215 215 239 215 215 239 215 215 240 216 216 240 216 216 240 216
216 240 216 216 240 216 216 240 216 216 240 216 216 240 216 216 240
216 216 240 216 216 240 216 216 240 216 216 240 216 216 240 216 216
240 216 216 240 216 216 239 216 216 239 215 215 239 215 215 239 215
215 239 215 215 239 215 215 239 215 215 239 215 215 238 215 215 238
214 214 238 214 214
80 72 72 80 72 72 80 72 72 79 71 71 79 71 71 79 71
71 78 71 71 78 70 70 78 70 70 77 70 70 77 69 69 77
69 69 76 69 69 76 68 68 76 68 68 75 68 68 75 67 67
75 67 67 74 67 67 74 66 66 73 66 66 73 66 66 73 65
65 72 65 65 72 65 65 71 64 64 71 64 64 70 63 63 70
63 63 69 63 63 69 62 62 68 62 62 238 214 214 238 214 214
238 215 215 239 215 215 239 215 215 239 215 215 239 215 215 239 215
215 239 215 215 239 215 215 239 216 216 239 216 216 239 216 216 239
216 216 239 216 216 239 216 216 239 215 215 239 215 215 239 215 215
239 215 215 239 215 215 239 215 215 239 215 215 239 215 215 239 215
215 238 215 215 238 215 215 238 214 214 238 214 214 238 214 214 238
214 214 238 214 214
80 72 72 80 72 72 79 72 72 79 71 71 79 71 71 79 71
71 78 70 70 78 70 70 78 70 70 77 70 70 77 69 69 77
69 69 76 69 69 76 68 68 75 68 68 75 68 68 75 67 67
74 67 67 74 67 67 74 66 66 73 66 66 73 66 66 72 65
65 72 65 65 72 64 64 71 64 64 71 64 64 70 63 63 70
63 63 69 62 62 69 62 62 68 62 62 237 213 213 237 214 214
238 214 214 238 214 214 238 214 214 238 215 215 238 215 215 239 215
215 239 215 215 239 215 215 239 215 215 239 215 215 239 215 215 239
215 215 239 215 215 239 215 215 239 215 215 239 215 215 239 215 215
239 215 215 238 215 215 238 215 215 238 215 215 238 214 214 238 214
214 238 214 214 238 214 214 238 214 214 238 214 214 237 214 214 237
214 214 237 213 213
80 72 72 80 72 72 79 71 71 79 71 71 79 71 71 78 71
71 78 70 70 78 70 70 77 70 70 77 69 69 77 69 69 76
69 69 76 68 68 76 68 68 75 68 68 75 67 67 75 67 67
74 67 67 74 66 66 73 66 66 73 66 66 73 65 65 72 65
65 72 65 65 71 64 64 71 64 64 70 63 63 70 63 63 70
63 63 69 62 62 69 62 62 68 61 61 236 213 213 237 213 213
237 213 213 237 214 214 237 214 214 238 214 214 238 214 214 238 214
214 238 214 214 238 214 214 238 214 214 238 214 214 238 215 215 238
215 215 238 214 214 238 214 214 238 214 214 238 214 214 238 214 214
238 214 214 238 214 214 238 214 214 238 214 214 238 214 214 238 214
214 237 214 214 237 214 214 237 214 214 237 213 213 237 213 213 237
213 213 237 213 213
80 72 72 79 71 71 79 71 71 79 71 71 78 71 71 78 70
70 78 70 70 78 70 70 77 70 70 77 69 69 77 69 69 76
69 69 76 68 68 75 68 68 75 68 68 75 67 67 74 67 67
74 67 67 74 66 66 73 66 66 73 66 66 72 65 65 72 65
65 72 65 65 71 64 64 71 64 64 70 63 63 70 63 63 69
63 63 69 62 62 69 62 62 68 61 61 236 212 212 236 212 212
236 213 213 237 213 213 237 213 213 237 213 213 237 214 214 237 214
214 237 214 214 238 214 214 238 214 214 238 214 214 238 214 214 238
214 214 238 214 214 238 214 214 238 214 214 238 214 214 238 214 214
237 214 214 237 214 214 237 214 214 237 214 214 237 213 213 237 213
213 237 213 213 237 213 213 237 213 213 237 213 213 236 213 213 236
213 213 236 213 213
79 72 72 79 71 71 79 71 71 79 71 71 78 71 71 78 70
70 78 70 70 77 70 70 77 69 69 77 69 69 76 69 69 76
68 68 76 68 68 75 68 68 75 68 68 75 67 67 74 67 67
74 67 67 73 66 66 73 66 66 73 65 65 72 65 65 72 65
65 71 64 64 71 64 64 71 64 64 70 63 63 70 63 63 69
62 62 69 62 62 68 62 62 68 61 61 235 212 212 235 212 212
236 212 212 236 212 212 236 213 213 236 213 213 237 213 213 237 213
213 237 213 213 237 213 213 237 213 213 237 213 213 237 213 213 237
213 213 237 213 213 237 213 213 237 213 213 237 213 213 237 213 213
237 213 213 237 213 213 237 213 213 237 213 213 237 213 213 237 213
213 236 213 213 236 213 213 236 213 213 236 213 213 236 212 212 236
212 212 236 212 212
79 71 71 79 71 71 79 71 71 78 71 71 78 70 70 78 70
70 77 70 70 77 69 69 77 69 69 77 69 69 76 69 69 76
68 68 75 68 68 75 68 68 75 67 67 74 67 67 74 67 67
74 66 66 73 66 66 73 66 66 73 65 65 72 65 65 72 65
65 71 64 64 71 64 64 70 63 63 70 63 63 70 63 63 69
62 62 69 62 62 68 61 61 68 61 61 234 211 211 235 211 211
235 211 211 235 212 212 235 212 212 236 212 212 236 212 212 236 212
212 236 213 213 236 213 213 236 213 213 236 213 213 236 213 213 236
213 213 236 213 213 236 213 213 236 213 213 236 213 213 236 213 213
236 213 213 236 213 213 236 213 213 236 213 213 236 213 213 236 212
212 236 212 212 236 212 212 236 212 212 236 212 212 235 212 212 235
212 212 235 212 212
79 71 71 79 71 71 79 71 71 78 70 70 78 70 70 78 70
70 77 70 70 77 69 69 77 69 69 76 69 69 76 68 68 76
68 68 75 68 68 75 68 68 75 67 67 74 67 67 74 67 67
74 66 66 73 66 66 73 66 66 72 65 65 72 65 65 72 64
64 71 64 64 71 64 64 15 150 75 15 143 72 14 131 66 12
112 56 69 62 62 68 61 61 68 61 61 234 210 210 234 211 211
234 211 211 235 211 211 235 211 211 235 212 212 235 212 212 235 212
212 236 212 212 236 212 212 236 212 212 236 212 212 236 212 212 236
212 212 236 212 212 236 212 212 236 212 212 236 212 212 236 212 212
236 212 212 236 212 212 236 212 212 236 212 212 236 212 212 235 212
212 235 212 212 235 212 212 235 212 212 235 212 212 235 211 211 235
211 211 235 211 211
79 71 71 79 71 71 78 71 71 78 70 70 78 70 70 77 70
70 77 69 69 77 69 69 76 69 69 76 69 69 76 68 68 75
68 68 75 68 68 75 67 67 74 67 67 74 67 67 74 66 66
73 66 66 73 66 66 73 65 65 72 65 65 72 65 65 19 181
91 19 182 91 18 177 89 17 170 85 16 160 80 15 150 75 14
137 69 13 121 61 11 102 51 8 71 36 233 210 210 233 210 210
234 210 210 234 210 210 234 211 211 234 211 211 235 211 211 235 211
211 235 211 211 235 212 212 235 212 212 235 212 212 235 212 212 235
212 212 235 212 212 235 212 212 235 212 212 235 212 212 235 212 212
235 212 212 235 212 212 235 212 212 235 212 212 235 212 212 235 211
211 235 211 211 235 211 211 235 211 211 235 211 211 234 211 211 234
211 211 234 211 211
79 71 71 78 71 71 78 70 70 78 70 70 78 70 70 77 70
70 77 69 69 77 69 69 76 69 69 76 68 68 76 68 68 75
68 68 75 68 68 75 67 67 74 67 67 74 67 67 74 66 66
73 66 66 73 66 66 72 65 65 72 65 65 20 195 98 20 194
97 19 189 95 19 183 92 18 175 88 17 165 83 16 155 78 15
143 72 13 129 65 12 113 57 10 95 48 7 70 35 232 209 209
233 210 210 233 210 210 233 210 210 234 210 210 234 210 210 234 211
211 234 211 211 234 211 211 234 211 211 234 211 211 235 211 211 235
211 211 235 211 211 235 211 211 235 211 211 235 211 211 235 211 211
235 211 211 235 211 211 235 211 211 234 211 211 234 211 211 234 211
211 234 211 211 234 211 211 234 211 211 234 211 211 234 211 211 234
210 210 234 210 210
79 71 71 78 70 70 78 70 70 78 70 70 77 70 70 77 69
69 77 69 69 76 69 69 76 69 69 76 68 68 75 68 68 75
68 68 75 67 67 74 67 67 74 67 67 74 66 66 73 66 66
73 66 66 73 65 65 19 189 95 21 201 101 21 201 101 20 197
99 20 191 96 19 184 92 18 175 88 17 166 83 16 156 78 15
144 72 14 131 66 12 117 59 11 101 51 9 81 41 6 56 28
232 209 209 232 209 209 233 209 209 233 210 210 233 210 210 233 210
210 233 210 210 234 210 210 234 210 210 234 210 210 234 211 211 234
211 211 234 211 211 234 211 211 234 211 211 234 211 211 234 211 211
234 211 211 234 211 211 234 211 211 234 211 211 234 211 211 234 210
210 234 210 210 234 210 210 234 210 210 233 210 210 233 210 210 233
210 210 233 210 210
78 71 71 78 70 70 78 70 70 77 70 70 77 70 70 77 69
69 77 69 69 76 69 69 76 68 68 76 68 68 75 68 68 75
67 67 75 67 67 74 67 67 74 67 67 74 66 66 73 66 66
73 66 66 72 65 65 21 203 102 21 204 102 21 201 101 20 196
98 19 190 95 19 183 92 18 174 87 17 165 83 16 155 78 15
143 72 14 131 66 12 117 59 11 102 51 9 85 43 7 64 32
4 36 18 232 209 209 232 209 209 232 209 209 232 209 209 233 209
209 233 210 210 233 210 210 233 210 210 233 210 210 233 210 210 233
210 210 233 210 210 233 210 210 233 210 210 233 210 210 233 210 210
233 210 210 233 210 210 233 210 210 233 210 210 233 210 210 233 210
210 233 210 210 233 210 210 233 210 210 233 210 210 233 210 210 233
210 210 233 209 209
78 70 70 78 70 70 78 70 70 77 70 70 77 69 69 77 69
69 76 69 69 76 68 68 76 68 68 75 68 68 75 68 68 75
67 67 74 67 67 74 67 67 74 66 66 73 66 66 73 66 66
73 65 65 20 200 100 21 204 102 21 203 102 20 199 100 20 194
97 19 187 94 18 180 90 18 171 86 17 162 81 16 152 76 15
141 71 13 129 65 12 116 58 11 101 51 9 85 43 7 66 33
5 43 22 3 26 13 231 208 208 231 208 208 232 209 209 232 209
209 232 209 209 232 209 209 232 209 209 232 209 209 233 209 209 233
209 209 233 210 210 233 210 210 233 210 210 233 210 210 233 210 210
233 210 210 233 210 210 233 210 210 233 210 210 233 209 209 233 209
209 233 209 209 233 209 209 232 209 209 232 209 209 232 209 209 232
209 209 232 209 209
78 70 70 78 70 70 77 70 70 77 69 69 77 69 69 76 69
69 76 69 69 76 68 68 76 68 68 75 68 68 75 67 67 75
67 67 74 67 67 74 67 67 74 66 66 73 66 66 73 66 66
19 184 92 21 201 101 21 202 101 20 200 100 20 196 98 20 190
96 21 186 94 18 176 88 17 167 84 16 158 79 15 148 74 14
137 69 13 126 63 12 113 57 10 99 50 9 83 42 7 65 33
5 44 22 3 26 13 230 207 207 231 208 208 231 208 208 231 208
208 231 208 208 232 208 208 232 209 209 232 209 209 232 209 209 232
209 209 232 209 209 232 209 209 232 209 209 232 209 209 232 209 209
232 209 209 232 209 209 232 209 209 232 209 209 232 209 209 232 209
209 232 209 209 232 209 209 232 209 209 232 209 209 232 209 209 232
209 209 232 208 208
78 70 70 77 70 70 77 70 70 77 69 69 77 69 69 76 69
69 76 68 68 76 68 68 75 68 68 75 68 68 75 67 67 74
67 67 74 67 67 74 66 66 73 66 66 73 66 66 73 65 65
20 191 96 20 198 99 20 199 100 20 196 98 20 191 96 41 207
115 56 217 128 18 171 86 17 163 82 16 153 77 15 143 72 14
133 67 13 121 61 11 108 54 10 95 48 8 79 40 7 62 31
5 42 21 3 26 13 3 26 13 230 207 207 230 207 207 230 207
207 231 208 208 231 208 208 231 208 208 231 208 208 231 208 208 231
208 208 231 208 208 231 208 208 232 208 208 232 208 208 232 208 208
232 208 208 232 208 208 232 208 208 232 208 208 232 208 208 231 208
208 231 208 208 231 208 208 231 208 208 231 208 208 231 208 208 231
208 208 231 208 208
78 70 70 77 70 70 77 69 69 77 69 69 76 69 69 76 69
69 76 68 68 75 68 68 75 68 68 75 67 67 75 67 67 74
67 67 74 67 67 74 66 66 73 66 66 73 66 66 72 65 65
19 189 95 20 194 97 20 193 97 19 190 95 19 186 93 20 182
92 19 174 87 17 165 83 16 157 79 15 148 74 14 138 69 13
127 64 12 116 58 11 103 52 9 90 45 8 75 38 6 58 29
4 38 19 3 26 13 3 26 13 229 206 206 230 207 207 230 207
207 230 207 207 230 207 207 230 207 207 230 207 207 231 208 208 231
208 208 231 208 208 231 208 208 231 208 208 231 208 208 231 208 208
231 208 208 231 208 208 231 208 208 231 208 208 231 208 208 231 208
208 231 208 208 231 208 208 231 208 208 231 208 208 231 208 208 231
208 208 231 208 208
77 70 70 77 69 69 77 69 69 76 69 69 76 69 69 76 68
68 76 68 68 75 68 68 75 68 68 75 67 67 74 67 67 74
67 67 74 66 66 73 66 66 73 66 66 73 65 65 72 65 65
19 184 92 19 188 94 19 187 94 19 184 92 18 179 90 18 173
87 17 166 83 16 159 80 15 150 75 15 141 71 14 132 66 13
121 61 11 110 55 10 97 49 9 84 42 7 69 35 6 52 26
4 33 17 3 26 13 3 26 13 228 206 206 229 206 206 229 206
206 229 206 206 229 207 207 230 207 207 230 207 207 230 207 207 230
207 207 230 207 207 230 207 207 230 207 207 230 207 207 230 207 207
230 207 207 230 207 207 230 207 207 230 207 207 230 207 207 230 207
207 230 207 207 230 207 207 230 207 207 230 207 207 230 207 207 230
207 207 230 207 207
77 69 69 77 69 69 77 69 69 76 69 69 76 68 68 76 68
68 75 68 68 75 68 68 75 67 67 74 67 67 74 67 67 74
66 66 73 66 66 73 66 66 73 66 66 72 65 65 72 65 65
18 176 88 18 180 90 18 179 90 18 176 88 18 172 86 17 166
83 16 159 80 16 152 76 15 143 72 14 134 67 13 124 62 12
114 57 11 102 51 9 90 45 8 77 39 7 62 31 5 45 23
3 26 13 3 26 13 3 26 13 228 205 205 228 205 205 228 205
205 228 206 206 229 206 206 229 206 206 229 206 206 229 206 206 229
206 206 229 207 207 229 207 207 230 207 207 230 207 207 230 207 207
230 207 207 230 207 207 230 207 207 230 207 207 230 207 207 230 207
207 230 207 207 230 207 207 230 207 207 230 207 207 230 207 207 230
207 207 229 207 207
77 69 69 77 69 69 76 69 69 76 69 69 76 68 68 76 68
68 75 68 68 75 67 67 75 67 67 74 67 67 74 67 67 74
66 66 73 66 66 73 66 66 73 65 65 72 65 65 72 65 65
17 167 84 18 171 86 18 171 86 17 168 84 17 163 82 16 158
79 16 151 76 15 144 72 14 135 68 13 126 63 12 117 59 11
106 53 10 95 48 9 82 41 7 69 35 6 54 27 4 37 19
3 26 13 3 26 13 3 26 13 227 204 204 227 205 205 228 205
205 228 205 205 228 205 205 228 205 205 228 206 206 228 206 206 229
206 206 229 206 206 229 206 206 229 206 206 229 206 206 229 206 206
229 206 206 229 206 206 229 206 206 229 206 206 229 206 206 229 206
206 229 206 206 229 206 206 229 206 206 229 206 206 229 206 206 229
206 206 229 206 206
77 69 69 76 69 69 76 69 69 76 68 68 76 68 68 75 68
68 75 68 68 75 67 67 74 67 67 74 67 67 74 66 66 73
66 66 73 66 66 73 66 66 72 65 65 72 65 65 72 65 65
16 155 78 17 161 81 17 161 81 16 158 79 16 154 77 15 149
75 15 142 71 14 135 68 13 127 64 12 118 59 11 108 54 10
97 49 9 86 43 8 73 37 6 60 30 5 45 23 3 28 14
3 26 13 3 26 13 3 26 13 226 204 204 226 204 204 227 204
204 227 204 204 227 205 205 227 205 205 228 205 205 228 205 205 228
205 205 228 205 205 88 175 18 90 179 18 87 174 18 81 162 17
72 144 15 59 117 12 228 206 206 229 206 206 229 206 206 229 206
206 229 206 206 229 206 206 228 206 206 228 206 206 228 206 206 228
206 206 228 206 206
77 69 69 76 69 69 76 68 68 76 68 68 75 68 68 75 68
68 75 67 67 74 67 67 74 67 67 74 67 67 74 66 66 73
66 66 73 66 66 73 65 65 72 65 65 72 65 65 72 64 64
14 140 70 15 149 75 15 150 75 15 148 74 15 144 72 14 139
70 14 132 66 13 125 63 12 117 59 11 108 54 10 98 49 9
88 44 8 76 38 7 64 32 5 50 25 4 35 18 3 26 13
3 26 13 3 26 13 3 26 13 225 203 203 226 203 203 226 203
203 226 204 204 226 204 204 227 204 204 227 204 204 227 204 204 76
152 16 96 191 20 99 197 20 98 195 20 94 188 19 88 176 18
80 160 16 70 139 14 56 111 12 33 66 7 228 205 205 228 205
205 228 205 205 228 205 205 228 205 205 228 205 205 228 205 205 228
205 205 228 205 205
76 69 69 76 69 69 76 68 68 75 68 68 75 68 68 75 67
67 75 67 67 74 67 67 74 67 67 74 66 66 73 66 66 73
66 66 73 65 65 72 65 65 72 65 65 72 65 65 71 64 64
12 112 56 14 134 67 14 137 69 14 136 68 14 132 66 13 128
64 13 121 61 12 114 57 11 106 53 10 98 49 9 88 44 8
77 39 7 66 33 6 53 27 4 39 20 3 26 13 3 26 13
3 26 13 3 26 13 139 125 125 138 124 124 225 202 202 225 203
203 225 203 203 226 203 203 226 203 203 26 23 23 26 23 23 95
190 19 101 202 21 102 204 21 100 200 20 96 192 20 90 180 18
83 165 17 73 146 15 61 122 13 45 90 9 17 33 4 227 205
205 227 205 205 227 205 205 227 205 205 227 205 205 227 205 205 227
205 205 227 205 205
76 69 69 76 68 68 76 68 68 75 68 68 75 68 68 75 67
67 74 67 67 74 67 67 74 66 66 73 66 66 73 66 66 73
66 66 73 65 65 72 65 65 72 65 65 71 64 64 71 64 64
71 64 64 12 115 58 13 122 61 13 122 61 12 120 60 12 115
58 11 109 55 11 103 52 10 95 48 9 86 43 8 76 38 7
65 33 6 53 27 4 40 20 3 26 13 3 26 13 3 26 13
3 26 13 3 26 13 26 23 23 26 23 23 26 23 23 26 23
23 26 23 23 26 23 23 26 23 23 26 23 23 84 168 17 98
195 20 102 203 21 102 203 21 100 199 21 95 190 19 90 179 18
83 165 17 74 147 15 63 125 13 48 96 10 29 57 6 227 204
204 227 204 204 227 204 204 227 204 204 227 204 204 227 204 204 227
204 204 227 204 204
76 68 68 76 68 68 75 68 68 75 68 68 75 67 67 75 67
67 74 67 67 74 67 67 74 66 66 73 66 66 73 66 66 160
128 16 151 121 16 123 98 13 78 62 8 155 140 140 155 140 140
155 139 139 154 139 139 11 102 51 11 106 53 11 105 53 11 101
51 10 96 48 9 89 45 9 81 41 8 73 37 7 63 32 6
52 26 4 40 20 3 26 13 3 26 13 3 26 13 3 26 13
3 26 13 26 23 23 26 23 23 26 23 23 26 23 23 26 23
23 26 23 23 26 23 23 26 23 23 26 23 23 86 172 18 96
192 20 99 198 20 99 198 20 131 227 54 93 185 19 87 174 18
80 160 16 71 142 15 61 121 13 48 95 10 30 59 6 13 26
3 226 204 204 226 204 204 226 204 204 226 204 204 226 204 204 226
204 204 226 204 204
76 68 68 75 68 68 75 68 68 75 67 67 75 67 67 74 67
67 162 146 146 161 145 145 161 145 145 161 145 145 197 158 20 184
147 19 161 129 17 132 106 14 97 78 10 52 42 6 158 142 142
157 142 142 157 141 141 7 65 33 9 84 42 9 86 43 9 84
42 8 80 40 8 74 37 7 66 33 6 58 29 5 48 24 4
37 19 3 26 13 3 26 13 3 26 13 3 26 13 3 26 13
26 23 23 26 23 23 26 23 23 26 23 23 26 23 23 26 23
23 26 23 23 26 23 23 26 23 23 26 23 23 82 164 17 92
183 19 95 189 19 94 188 19 92 184 19 88 176 18 83 165 17
76 151 16 67 134 14 57 114 12 44 88 9 27 54 6 13 26
3 139 125 125 226 203 203 226 203 203 226 203 203 226 203 203 226
203 203 226 203 203
166 150 150 166 150 150 166 149 149 165 149 149 165 148 148 164 148
148 164 148 148 164 147 147 163 147 147 204 164 21 197 158 20 179
143 18 155 124 16 127 101 13 93 75 10 52 42 6 26 21 3
159 144 144 159 143 143 159 143 143 158 142 142 7 61 31 7 63
32 6 60 30 6 55 28 5 48 24 4 40 20 3 30 15 3
26 13 3 26 13 3 26 13 3 26 13 3 26 13 26 23 23
26 23 23 26 23 23 26 23 23 26 23 23 26 23 23 26 23
23 26 23 23 26 23 23 26 23 23 26 23 23 74 147 15 84
168 17 88 175 18 88 175 18 86 171 18 82 164 17 77 153 16
70 139 14 61 122 13 51 102 11 39 77 8 22 43 5 13 26
3 142 127 127 141 127 127 141 127 127 140 126 126 140 126 126 139
125 125 139 125 125
168 151 151 168 151 151 167 151 151 167 150 150 167 150 150 166 150
150 166 149 149 165 149 149 165 149 149 198 159 20 186 149 19 167
134 17 143 114 15 114 92 12 81 65 9 42 34 5 26 21 3
161 145 145 161 145 145 160 144 144 160 144 144 160 144 144 3 28
14 4 33 17 4 31 16 3 26 13 3 26 13 3 26 13 3
26 13 3 26 13 3 26 13 3 26 13 26 23 23 26 23 23
26 23 23 26 23 23 26 23 23 26 23 23 26 23 23 26 23
23 26 23 23 26 23 23 26 23 23 150 135 135 59 117 12 74
148 15 79 157 16 79 158 16 78 155 16 74 148 15 69 137 14
62 124 13 54 107 11 43 86 9 30 60 6 13 26 3 144 130
130 144 130 130 143 129 129 143 129 129 143 128 128 142 128 128 142
128 128 141 127 127
170 153 153 169 152 152 169 152 152 169 152 152 168 151 151 168 151
151 167 151 151 167 150 150 175 140 18 183 146 19 170 136 17 150
120 15 126 101 13 97 78 10 64 51 7 26 21 3 26 21 3
163 147 147 162 146 146 162 146 146 162 145 145 161 145 145 161 145
145 160 144 144 26 23 23 3 26 13 3 26 13 3 26 13 3
26 13 26 23 23 26 23 23 26 23 23 26 23 23 26 23 23
26 23 23 26 23 23 26 23 23 26 23 23 26 23 23 154 138
138 153 138 138 153 137 137 152 137 137 152 137 137 151 136 136 60
119 12 67 133 14 69 137 14 68 135 14 64 128 13 59 118 12
53 105 11 44 88 9 33 66 7 19 38 4 13 26 3 26 23
23 26 23 23 26 23 23 26 23 23 26 23 23 26 23 23 144
130 130 144 129 129
171 154 154 171 154 154 170 153 153 170 153 153 169 153 153 169 152
152 169 152 152 168 151 151 145 116 15 161 129 17 148 119 15 129
103 13 104 84 11 76 61 8 42 34 5 26 21 3 26 21 3
164 148 148 164 147 147 163 147 147 163 147 147 26 23 23 162 146
146 162 146 146 161 145 145 161 145 145 161 145 145 160 144 144 160
144 144 159 143 143 159 143 143 158 143 143 158 142 142 158 142 142
157 142 142 157 141 141 156 141 141 156 140 140 156 140 140 155 140
140 155 139 139 154 139 139 154 139 139 154 138 138 153 138 138 29
57 6 50 100 10 54 108 11 54 108 11 52 103 11 47 94 10
40 80 8 31 62 7 20 39 4 13 26 3 26 23 23 26 23
23 26 23 23 26 23 23 26 23 23 26 23 23 26 23 23 146
131 131 145 131 131
172 155 155 172 155 155 171 154 154 171 154 154 170 153 153 170 153
153 170 153 153 169 152 152 169 152 152 130 104 13 121 97 13 102
82 11 78 62 8 49 39 5 26 21 3 26 21 3 26 21 3
26 23 23 26 23 23 26 23 23 26 23 23 26 23 23 26 23
23 163 147 147 163 146 146 162 146 146 162 146 146 161 145 145 161
145 145 161 145 145 160 144 144 160 144 144 159 144 144 159 143 143
159 143 143 158 142 142 158 142 142 157 142 142 157 141 141 157 141
141 156 141 141 156 140 140 155 140 140 155 140 140 155 139 139 154
139 139 154 138 138 33 66 7 36 72 8 35 70 7 31 61 7
24 47 5 14 27 3 13 26 3 26 23 23 26 23 23 26 23
23 26 23 23 26 23 23 26 23 23 26 23 23 148 133 133 148
133 133 147 133 133
173 156 156 173 155 155 172 155 155 172 155 155 171 154 154 171 154
154 171 154 154 170 153 153 170 153 153 170 153 153 84 67 9 68
55 7 44 35 5 26 21 3 26 21 3 26 21 3 26 23 23
26 23 23 26 23 23 26 23 23 26 23 23 26 23 23 165 148
148 164 148 148 164 147 147 163 147 147 163 147 147 163 146 146 162
146 146 162 146 146 161 145 145 161 145 145 161 145 145 160 144 144
160 144 144 159 144 144 159 143 143 159 143 143 158 143 143 158 142
142 158 142 142 157 141 141 157 141 141 156 141 141 156 140 140 156
140 140 155 140 140 155 139 139 26 23 23 13 26 3 13 26 3
13 26 3 26 23 23 26 23 23 26 23 23 26 23 23 26 23
23 26 23 23 26 23 23 150 135 135 150 135 135 150 135 135 149
134 134 149 134 134
174 156 156 173 156 156 173 156 156 173 155 155 172 155 155 172 155
155 171 154 154 171 154 154 171 154 154 170 153 153 170 153 153 26
21 3 26 21 3 26 21 3 26 23 23 26 23 23 26 23 23
26 23 23 167 150 150 167 150 150 166 150 150 166 149 149 165 149
149 165 149 149 165 148 148 164 148 148 164 148 148 164 147 147 163
147 147 163 147 147 162 146 146 162 146 146 162 146 146 161 145 145
161 145 145 161 145 145 160 144 144 160 144 144 159 144 144 159 143
143 159 143 143 158 143 143 158 142 142 158 142 142 157 142 142 157
141 141 156 141 141 156 141 141 156 140 140 155 140 140 155 140 140
155 139 139 154 139 139 154 139 139 153 138 138 153 138 138 153 138
138 152 137 137 152 137 137 152 137 137 151 136 136 151 136 136 151
136 136 150 135 135
174 157 157 174 157 157 174 156 156 173 156 156 173 156 156 173 155
155 172 155 155 172 155 155 171 154 154 171 154 154 171 154 154 170
153 153 170 153 153 170 153 153 169 152 152 169 152 152 169 152 152
168 151 151 168 151 151 167 151 151 167 150 150 167 150 150 166 150
150 166 149 149 166 149 149 165 149 149 165 148 148 164 148 148 164
148 148 164 147 147 163 147 147 163 147 147 163 146 146 162 146 146
162 146 146 162 145 145 161 145 145 161 145 145 160 144 144 160 144
144 160 144 144 159 143 143 159 143 143 159 143 143 158 143 143 158
142 142 158 142 142 157 142 142 157 141 141 156 141 141 156 141 141
156 140 140 155 140 140 155 140 140 155 139 139 154 139 139 154 139
139 154 138 138 153 138 138 153 138 138 153 137 137 152 137 137 152
137 137 152 136 136
175 157 157 174 157 157 174 157 157 174 156 156 173 156 156 173 156
156 173 156 156 172 155 155 172 155 155 172 155 155 171 154 154 171
154 154 171 154 154 170 153 153 170 153 153 170 153 153 169 152 152
169 152 152 169 152 152 168 151 151 168 151 151 167 151 151 167 150
150 167 150 150 166 150 150 166 149 149 166 149 149 165 149 149 165
149 149 165 148 148 164 148 148 164 148 148 164 147 147 163 147 147
163 147 147 162 146 146 162 146 146 162 146 146 161 145 145 161 145
145 161 145 145 160 144 144 160 144 144 160 144 144 159 143 143 159
143 143 159 143 143 158 142 142 158 142 142 158 142 142 157 142 142
157 141 141 157 141 141 156 141 141 156 140 140 155 140 140 155 140
140 155 139 139 154 139 139 154 139 139 154 138 138 153 138 138 153
138 138 153 138 138
175 158 158 175 158 158 175 157 157 174 157 157 174 157 157 174 156
156 173 156 156 173 156 156 173 155 155 172 155 155 172 155 155 172
154 154 171 154 154 171 154 154 171 154 154 170 153 153 170 153 153
170 153 153 169 152 152 169 152 152 168 152 152 168 151 151 168 151
151 167 151 151 167 150 150 167 150 150 166 150 150 166 149 149 166
149 149 165 149 149 165 149 149 165 148 148 164 148 148 164 148 148
164 147 147 163 147 147 163 147 147 163 146 146 162 146 146 162 146
146 162 145 145 161 145 145 161 145 145 161 145 145 160 144 144 160
144 144 160 144 144 159 143 143 159 143 143 159 143 143 158 142 142
158 142 142 157 142 142 157 141 141 157 141 141 156 141 141 156 141
141 156 140 140 155 140 140 155 140 140 155 139 139 154 139 139 154
139 139 154 138 138
176 158 158 175 158 158 175 158 158 175 157 157 174 157 157 174 157
157 174 156 156 173 156 156 173 156 156 173 156 156 172 155 155 172
155 155 172 155 155 171 154 154 171 154 154 171 154 154 170 153 153
170 153 153 170 153 153 169 153 153 169 152 152 169 152 152 168 152
152 168 151 151 168 151 151 167 151 151 167 150 150 167 150 150 166
150 150 166 149 149 166 149 149 165 149 149 165 149 149 165 148 148
164 148 148 164 148 148 164 147 147 163 147 147 163 147 147 163 146
146 162 146 146 162 146 146 162 146 146 161 145 145 161 145 145 161
145 145 160 144 144 160 144 144 160 144 144 159 144 144 159 143 143
159 143 143 158 143 143 158 142 142 158 142 142 157 142 142 157 141
141 157 141 141 156 141 141 156 141 141 156 140 140 155 140 140 155
140 140 155 139 139
176 159 159 176 158 158 175 158 158 175 158 158 175 157 157 175 157
157 174 157 157 174 157 157 174 156 156 173 156 156 173 156 156 173
155 155 172 155 155 172 155 155 172 154 154 171 154 154 171 154 154
171 154 154 170 153 153 170 153 153 170 153 153 169 152 152 169 152
152 169 152 152 168 152 152 168 151 151 168 151 151 167 151 151 167
150 150 167 150 150 166 150 150 166 149 149 166 149 149 165 149 149
165 149 149 165 148 148 164 148 148 164 148 148 164 147 147 163 147
147 163 147 147 163 147 147 162 146 146 162 146 146 162 146 146 161
145 145 161 145 145 161 145 145 161 145 145 160 144 144 160 144 144
160 144 144 159 143 143 159 143 143 159 143 143 158 143 143 158 142
142 158 142 142 157 142 142 157 141 141 157 141 141 156 141 141 156
141 141 156 140 140
176 159 159 176 159 159 176 158 158 176 158 158 175 158 158 175 157
157 175 157 157 174 157 157 174 157 157 174 156 156 173 156 156 173
156 156 173 155 155 172 155 155 172 155 155 172 155 155 171 154 154
171 154 154 171 154 154 170 153 153 170 153 153 170 153 153 169 153
153 169 152 152 169 152 152 169 152 152 168 151 151 168 151 151 168
151 151 167 151 151 167 150 150 167 150 150 166 150 150 166 149 149
166 149 149 165 149 149 165 149 149 165 148 148 164 148 148 164 148
148 164 147 147 163 147 147 163 147 147 163 147 147 163 146 146 162
146 146 162 146 146 162 145 145 161 145 145 161 145 145 161 145 145
160 144 144 160 144 144 160 144 144 159 144 144 159 143 143 159 143
143 158 143 143 158 142 142 158 142 142 158 142 142 157 142 142 157
141 141 157 141 141
177 159 159 176 159 159 176 159 159 176 158 158 176 158 158 175 158
158 175 157 157 175 157 157 174 157 157 174 157 157 174 156 156 173
156 156 173 156 156 173 156 156 172 155 155 172 155 155 172 155 155
171 154 154 171 154 154 171 154 154 171 154 154 170 153 153 170 153
153 170 153 153 169 152 152 169 152 152 169 152 152 168 152 152 168
151 151 168 151 151 167 151 151 167 150 150 167 150 150 167 150 150
166 150 150 166 149 149 166 149 149 165 149 149 165 149 149 165 148
148 164 148 148 164 148 148 164 147 147 163 147 147 163 147 147 163
147 147 163 146 146 162 146 146 162 146 146 162 146 146 161 145 145
161 145 145 161 145 145 160 144 144 160 144 144 160 144 144 160 144
144 159 143 143 159 143 143 159 143 143 158 143 143 158 142 142 158
142 142 157 142 142
177 159 159 177 159 159 176 159 159 176 159 159 176 158 158 175 158
158 175 158 158 175 157 157 175 157 157 174 157 157 174 157 157 174
156 156 173 156 156 173 156 156 173 156 156 172 155 155 172 155 155
172 155 155 172 154 154 171 154 154 171 154 154 171 154 154 170 153
153 170 153 153 170 153 153 169 153 153 169 152 152 169 152 152 169
152 152 168 151 151 168 151 151 168 151 151 167 151 151 167 150 150
167 150 150 166 150 150 166 150 150 166 149 149 166 149 149 165 149
149 165 149 149 165 148 148 164 148 148 164 148 148 164 147 147 163
147 147 163 147 147 163 147 147 163 146 146 162 146 146 162 146 146
162 146 146 161 145 145 161 145 145 161 145 145 161 145 145 160 144
144 160 144 144 160 144 144 159 144 144 159 143 143 159 143 143 159
143 143 158 142 142
177 160 160 177 159 159 177 159 159 176 159 159 176 158 158 176 158
158 175 158 158 175 158 158 175 157 157 175 157 157 174 157 157 174
157 157 174 156 156 173 156 156 173 156 156 173 156 156 173 155 155
172 155 155 172 155 155 172 155 155 171 154 154 171 154 154 171 154
154 170 153 153 170 153 153 170 153 153 170 153 153 169 152 152 169
152 152 169 152 152 168 152 152 168 151 151 168 151 151 168 151 151
167 151 151 167 150 150 167 150 150 166 150 150 166 150 150 166 149
149 166 149 149 165 149 149 165 148 148 165 148 148 164 148 148 164
148 148 164 147 147 163 147 147 163 147 147 163 147 147 163 146 146
162 146 146 162 146 146 162 146 146 161 145 145 161 145 145 161 145
145 161 145 145 160 144 144 160 144 144 160 144 144 160 144 144 159
143 143 159 143 143
177 160 160 177 159 159 177 159 159 177 159 159 176 159 159 176 158
158 176 158 158 175 158 158 175 158 158 175 157 157 175 157 157 174
157 157 174 157 157 174 156 156 173 156 156 173 156 156 173 156 156
173 155 155 172 155 155 172 155 155 172 155 155 171 154 154 171 154
154 171 154 154 171 154 154 170 153 153 170 153 153 170 153 153 169
153 153 169 152 152 169 152 152 169 152 152 168 151 151 168 151 151
168 151 151 167 151 151 167 150 150 167 150 150 167 150 150 166 150
150 166 149 149 166 149 149 165 149 149 165 149 149 165 148 148 165
148 148 164 148 148 164 148 148 164 147 147 163 147 147 163 147 147
163 147 147 163 146 146 162 146 146 162 146 146 162 146 146 162 145
145 161 145 145 161 145 145 161 145 145 160 144 144 160 144 144 160
144 144 160 144 144
178 160 160 177 160 160 177 159 159 177 159 159 176 159 159 176 159
159 176 158 158 176 158 158 175 158 158 175 158 158 175 157 157 175
157 157 174 157 157 174 157 157 174 156 156 173 156 156 173 156 156
173 156 156 173 155 155 172 155 155 172 155 155 172 155 155 171 154
154 171 154 154 171 154 154 171 154 154 170 153 153 170 153 153 170
153 153 170 153 153 169 152 152 169 152 152 169 152 152 168 152 152
168 151 151 168 151 151 168 151 151 167 151 151 167 150 150 167 150
150 166 150 150 166 150 150 166 149 149 166 149 149 165 149 149 165
149 149 165 148 148 165 148 148 164 148 148 164 148 148 164 147 147
163 147 147 163 147 147 163 147 147 163 146 146 162 146 146 162 146
146 162 146 146 162 145 145 161 145 145 161 145 145 161 145 145 161
145 145 160 144 144
178 160 160 178 160 160 177 160 160 177 159 159 177 159 159 176 159
159 176 159 159 176 158 158 176 158 158 175 158 158 175 158 158 175
157 157 174 157 157 174 157 157 174 157 157 174 156 156 173 156 156
173 156 156 173 156 156 173 155 155 172 155 155 172 155 155 172 155
155 171 154 154 171 154 154 171 154 154 171 154 154 170 153 153 170
153 153 170 153 153 170 153 153 169 152 152 169 152 152 169 152 152
169 152 152 168 151 151 168 151 151 168 151 151 167 151 151 167 151
151 167 150 150 167 150 150 166 150 150 166 150 150 166 149 149 166
149 149 165 149 149 165 149 149 165 148 148 165 148 148 164 148 148
164 148 148 164 147 147 163 147 147 163 147 147 163 147 147 163 146
146 162 146 146 162 146 146 162 146 146 162 145 145 161 145 145 161
145 145 161 145 145
178 160 160 178 160 160 177 160 160 177 159 159 177 159 159 177 159
159 176 159 159 176 158 158 176 158 158 176 158 158 175 158 158 175
158 158 175 157 157 174 157 157 174 157 157 174 157 157 174 156 156
173 156 156 173 156 156 173 156 156 173 155 155 172 155 155 172 155
155 172 155 155 172 154 154 171 154 154 171 154 154 171 154 154 170
153 153 170 153 153 170 153 153 170 153 153 169 153 153 169 152 152
169 152 152 169 152 152 168 152 152 168 151 151 168 151 151 168 151
151 167 151 151 167 150 150 167 150 150 167 150 150 166 150 150 166
149 149 166 149 149 165 149 149 165 149 149 165 149 149 165 148 148
164 148 148 164 148 148 164 148 148 164 147 147 163 147 147 163 147
147 163 147 147 163 146 146 162 146 146 162 146 146 162 146 146 162
146 146 161 145 145
178 160 160 178 160 160 178 160 160 177 160 160 177 159 159 177 159
159 176 159 159 176 159 159 176 158 158 176 158 158 175 158 158 175
158 158 175 157 157 175 157 157 174 157 157 174 157 157 174 157 157
174 156 156 173 156 156 173 156 156 173 156 156 173 155 155 172 155
155 172 155 155 172 155 155 172 154 154 171 154 154 171 154 154 171
154 154 171 154 154 170 153 153 170 153 153 170 153 153 169 153 153
169 152 152 169 152 152 169 152 152 168 152 152 168 151 151 168 151
151 168 151 151 167 151 151 167 151 151 167 150 150 167 150 150 166
150 150 166 150 150 166 149 149 166 149 149 165 149 149 165 149 149
165 148 148 165 148 148 164 148 148 164 148 148 164 148 148 164 147
147 163 147 147 163 147 147 163 147 147 163 146 146 162 146 146 162
146 146 162 146 146
178 160 160 178 160 160 178 160 160 177 160 160 177 159 159 177 159
159 177 159 159 176 159 159 176 159 159 176 158 158 176 158 158 175
158 158 175 158 158 175 157 157 175 157 157 174 157 157 174 157 157
174 157 157 174 156 156 173 156 156 173 156 156 173 156 156 173 155
155 172 155 155 172 155 155 172 155 155 172 154 154 171 154 154 171
154 154 171 154 154 171 154 154 170 153 153 170 153 153 170 153 153
170 153 153 169 152 152 169 152 152 169 152 152 169 152 152 168 152
152 168 151 151 168 151 151 168 151 151 167 151 151 167 150 150 167
150 150 167 150 150 166 150 150 166 150 150 166 149 149 166 149 149
165 149 149 165 149 149 165 148 148 165 148 148 164 148 148 164 148
148 164 148 148 164 147 147 163 147 147 163 147 147 163 147 147 163
146 146 162 146 146
178 161 161 178 160 160 178 160 160 178 160 160 177 160 160 177 159
159 177 159 159 177 159 159 176 159 159 176 158 158 176 158 158 176
158 158 175 158 158 175 158 158 175 157 157 175 157 157 174 157 157
174 157 157 174 156 156 174 156 156 173 156 156 173 156 156 173 156
156 173 155 155 172 155 155 172 155 155 172 155 155 172 154 154 171
154 154 171 154 154 171 154 154 171 154 154 170 153 153 170 153 153
170 153 153 170 153 153 169 152 152 169 152 152 169 152 152 169 152
152 168 152 152 168 151 151 168 151 151 168 151 151 167 151 151 167
151 151 167 150 150 167 150 150 166 150 150 166 150 150 166 149 149
166 149 149 165 149 149 165 149 149 165 149 149 165 148 148 165 148
148 164 148 148 164 148 148 164 147 147 164 147 147 163 147 147 163
147 147 163 147 147
178 161 161 178 160 160 178 160 160 178 160 160 177 160 160 177 160
160 177 159 159 177 159 159 176 159 159 176 159 159 176 158 158 176
158 158 175 158 158 175 158 158 175 158 158 175 157 157 174 157 157
174 157 157 174 157 157 174 156 156 174 156 156 173 156 156 173 156
156 173 156 156 173 155 155 172 155 155 172 155 155 172 155 155 172
154 154 171 154 154 171 154 154 171 154 154 171 154 154 170 153 153
170 153 153 170 153 153 170 153 153 169 153 153 169 152 152 169 152
152 169 152 152 168 152 152 168 151 151 168 151 151 168 151 151 168
151 151 167 151 151 167 150 150 167 150 150 167 150 150 166 150 150
166 150 150 166 149 149 166 149 149 165 149 149 165 149 149 165 148
148 165 148 148 164 148 148 164 148 148 164 148 148 164 147 147 164
147 147 163 147 147
178 161 161 178 160 160 178 160 160 178 160 160 178 160 160 177 160
160 177 159 159 177 159 159 177 159 159 176 159 159 176 159 159 176
158 158 176 158 158 175 158 158 175 158 158 175 157 157 175 157 157
174 157 157 174 157 157 174 157 157 174 156 156 173 156 156 173 156
156 173 156 156 173 156 156 173 155 155 172 155 155 172 155 155 172
155 155 172 154 154 171 154 154 171 154 154 171 154 154 171 154 154
170 153 153 170 153 153 170 153 153 170 153 153 169 153 153 169 152
152 169 152 152 169 152 152 169 152 152 168 152 152 168 151 151 168
151 151 168 151 151 167 151 151 167 150 150 167 150 150 167 150 150
166 150 150 166 150 150 166 149 149 166 149 149 166 149 149 165 149
149 165 149 149 165 148 148 165 148 148 164 148 148 164 148 148 164
148 148 164 147 147
